<svg class="main-svg" xmlns="http://www.w3.org/2000/svg" xmlns:xlink="http://www.w3.org/1999/xlink" width="1240" height="640" style="" viewBox="0 0 1240 640"><rect x="0" y="0" width="1240" height="640" style="fill: rgb(253, 250, 244); fill-opacity: 1;"/><defs id="defs-eb18a7"><g class="clips"><clipPath id="clipeb18a7xyplot" class="plotclip"><rect width="846" height="500"/></clipPath><clipPath class="axesclip" id="clipeb18a7x"><rect x="90" y="0" width="846" height="640"/></clipPath><clipPath class="axesclip" id="clipeb18a7y"><rect x="0" y="70" width="1240" height="500"/></clipPath><clipPath class="axesclip" id="clipeb18a7xy"><rect x="90" y="70" width="846" height="500"/></clipPath></g><g class="gradients"/><g class="patterns"/></defs><g class="bglayer"/><g class="layer-below"><g class="imagelayer"/><g class="shapelayer"/></g><g class="cartesianlayer"><g class="subplot xy"><g class="layer-subplot"><g class="shapelayer"/><g class="imagelayer"/></g><g class="minor-gridlayer"><g class="x"/><g class="y"/></g><g class="gridlayer"><g class="x"><path class="xgrid crisp" transform="translate(254.87,0)" d="M0,70v500" style="stroke: rgb(45, 24, 16); stroke-opacity: 0.3; stroke-width: 1px;"/><path class="xgrid crisp" transform="translate(464.75,0)" d="M0,70v500" style="stroke: rgb(45, 24, 16); stroke-opacity: 0.3; stroke-width: 1px;"/><path class="xgrid crisp" transform="translate(674.63,0)" d="M0,70v500" style="stroke: rgb(45, 24, 16); stroke-opacity: 0.3; stroke-width: 1px;"/><path class="xgrid crisp" transform="translate(884.51,0)" d="M0,70v500" style="stroke: rgb(45, 24, 16); stroke-opacity: 0.3; stroke-width: 1px;"/></g><g class="y"><path class="ygrid crisp" transform="translate(0,470.71)" d="M90,0h846" style="stroke: rgb(45, 24, 16); stroke-opacity: 0.3; stroke-width: 1px;"/><path class="ygrid crisp" transform="translate(0,371.06)" d="M90,0h846" style="stroke: rgb(45, 24, 16); stroke-opacity: 0.3; stroke-width: 1px;"/><path class="ygrid crisp" transform="translate(0,271.4)" d="M90,0h846" style="stroke: rgb(45, 24, 16); stroke-opacity: 0.3; stroke-width: 1px;"/><path class="ygrid crisp" transform="translate(0,171.74)" d="M90,0h846" style="stroke: rgb(45, 24, 16); stroke-opacity: 0.3; stroke-width: 1px;"/><path class="ygrid crisp" transform="translate(0,72.08)" d="M90,0h846" style="stroke: rgb(45, 24, 16); stroke-opacity: 0.3; stroke-width: 1px;"/></g></g><g class="zerolinelayer"/><g class="layer-between"><g class="shapelayer"/><g class="imagelayer"/></g><path class="xlines-below"/><path class="ylines-below"/><g class="overlines-below"/><g class="xaxislayer-below"/><g class="yaxislayer-below"/><g class="overaxes-below"/><g class="overplot"><g class="xy" transform="translate(90,70)" clip-path="url(#clipeb18a7xyplot)"><g class="scatterlayer mlayer"><g class="trace scatter tracec1e237" style="stroke-miterlimit: 2; opacity: 1;"><g class="fills"/><g class="errorbars"/><g class="lines"/><g class="points"><path class="point plotly-customdata" transform="translate(485.48,283.42)" d="M0,3.96l3.96,3.96l3.96,-3.96l-3.96,-3.96l3.96,-3.96l-3.96,-3.96l-3.96,3.96l-3.96,-3.96l-3.96,3.96l3.96,3.96l-3.96,3.96l3.96,3.96Z" style="opacity: 0.5; stroke-width: 1.5px; fill: rgb(122, 26, 26); fill-opacity: 1; stroke: rgb(45, 24, 16); stroke-opacity: 1;"/><path class="point plotly-customdata" transform="translate(499.28,298.7)" d="M0,3.96l3.96,3.96l3.96,-3.96l-3.96,-3.96l3.96,-3.96l-3.96,-3.96l-3.96,3.96l-3.96,-3.96l-3.96,3.96l3.96,3.96l-3.96,3.96l3.96,3.96Z" style="opacity: 0.5; stroke-width: 1.5px; fill: rgb(122, 26, 26); fill-opacity: 1; stroke: rgb(45, 24, 16); stroke-opacity: 1;"/><path class="point plotly-customdata" transform="translate(287.54,186.48)" d="M0,3.96l3.96,3.96l3.96,-3.96l-3.96,-3.96l3.96,-3.96l-3.96,-3.96l-3.96,3.96l-3.96,-3.96l-3.96,3.96l3.96,3.96l-3.96,3.96l3.96,3.96Z" style="opacity: 0.5; stroke-width: 1.5px; fill: rgb(122, 26, 26); fill-opacity: 1; stroke: rgb(45, 24, 16); stroke-opacity: 1;"/></g><g class="text"/></g><g class="trace scatter tracef744f4" style="stroke-miterlimit: 2; opacity: 1;"><g class="fills"/><g class="errorbars"/><g class="lines"/><g class="points"><path class="point plotly-customdata" transform="translate(641.76,345.32)" d="M7,0A7,7 0 1,1 0,-7A7,7 0 0,1 7,0Z" style="opacity: 0.999271; stroke-width: 1.5px; fill: rgb(27, 58, 92); fill-opacity: 1; stroke: rgb(45, 24, 16); stroke-opacity: 1;"/><path class="point plotly-customdata" transform="translate(537.6,282.32)" d="M7,0A7,7 0 1,1 0,-7A7,7 0 0,1 7,0Z" style="opacity: 0.999308; stroke-width: 1.5px; fill: rgb(27, 58, 92); fill-opacity: 1; stroke: rgb(45, 24, 16); stroke-opacity: 1;"/><path class="point plotly-customdata" transform="translate(372.47,213.12)" d="M7,0A7,7 0 1,1 0,-7A7,7 0 0,1 7,0Z" style="opacity: 0.997668; stroke-width: 1.5px; fill: rgb(27, 58, 92); fill-opacity: 1; stroke: rgb(45, 24, 16); stroke-opacity: 1;"/><path class="point plotly-customdata" transform="translate(373.04,213.34)" d="M7,0A7,7 0 1,1 0,-7A7,7 0 0,1 7,0Z" style="opacity: 0.991279; stroke-width: 1.5px; fill: rgb(27, 58, 92); fill-opacity: 1; stroke: rgb(45, 24, 16); stroke-opacity: 1;"/><path class="point plotly-customdata" transform="translate(345.76,197.54)" d="M7,0A7,7 0 1,1 0,-7A7,7 0 0,1 7,0Z" style="opacity: 0.986861; stroke-width: 1.5px; fill: rgb(27, 58, 92); fill-opacity: 1; stroke: rgb(45, 24, 16); stroke-opacity: 1;"/><path class="point plotly-customdata" transform="translate(246.12,97.56)" d="M7,0A7,7 0 1,1 0,-7A7,7 0 0,1 7,0Z" style="opacity: 0.992451; stroke-width: 1.5px; fill: rgb(27, 58, 92); fill-opacity: 1; stroke: rgb(45, 24, 16); stroke-opacity: 1;"/><path class="point plotly-customdata" transform="translate(252.89,173)" d="M7,0A7,7 0 1,1 0,-7A7,7 0 0,1 7,0Z" style="opacity: 0.986769; stroke-width: 1.5px; fill: rgb(27, 58, 92); fill-opacity: 1; stroke: rgb(45, 24, 16); stroke-opacity: 1;"/><path class="point plotly-customdata" transform="translate(183.22,127.05)" d="M7,0A7,7 0 1,1 0,-7A7,7 0 0,1 7,0Z" style="opacity: 0.976135; stroke-width: 1.5px; fill: rgb(27, 58, 92); fill-opacity: 1; stroke: rgb(45, 24, 16); stroke-opacity: 1;"/><path class="point plotly-customdata" transform="translate(198.4,206.16)" d="M7,0A7,7 0 1,1 0,-7A7,7 0 0,1 7,0Z" style="opacity: 0.969325; stroke-width: 1.5px; fill: rgb(27, 58, 92); fill-opacity: 1; stroke: rgb(45, 24, 16); stroke-opacity: 1;"/><path class="point plotly-customdata" transform="translate(233.25,228.2)" d="M7,0A7,7 0 1,1 0,-7A7,7 0 0,1 7,0Z" style="opacity: 0.983052; stroke-width: 1.5px; fill: rgb(27, 58, 92); fill-opacity: 1; stroke: rgb(45, 24, 16); stroke-opacity: 1;"/><path class="point plotly-customdata" transform="translate(216.53,236.81)" d="M7,0A7,7 0 1,1 0,-7A7,7 0 0,1 7,0Z" style="opacity: 0.962628; stroke-width: 1.5px; fill: rgb(27, 58, 92); fill-opacity: 1; stroke: rgb(45, 24, 16); stroke-opacity: 1;"/><path class="point plotly-customdata" transform="translate(165.66,185.56)" d="M7,0A7,7 0 1,1 0,-7A7,7 0 0,1 7,0Z" style="opacity: 0.948236; stroke-width: 1.5px; fill: rgb(27, 58, 92); fill-opacity: 1; stroke: rgb(45, 24, 16); stroke-opacity: 1;"/><path class="point plotly-customdata" transform="translate(165.07,180.36)" d="M7,0A7,7 0 1,1 0,-7A7,7 0 0,1 7,0Z" style="opacity: 0.953941; stroke-width: 1.5px; fill: rgb(27, 58, 92); fill-opacity: 1; stroke: rgb(45, 24, 16); stroke-opacity: 1;"/></g><g class="text"/></g><g class="trace scatter trace085f00" style="stroke-miterlimit: 2; opacity: 1;"><g class="fills"/><g class="errorbars"/><g class="lines"/><g class="points"><path class="point" transform="translate(680.93,402.44)" d="M2.84,-3.89H11.98L4.57,1.49L7.41,10.19L0,4.81L-7.41,10.19L-4.57,1.49L-11.98,-3.89H-2.84L0,-12.6Z" style="opacity: 1; stroke-width: 1px; fill: rgb(139, 105, 20); fill-opacity: 1; stroke: rgb(45, 24, 16); stroke-opacity: 1;"/></g><g class="text"/></g></g></g></g><g class="zerolinelayer-above"/><path class="xlines-above crisp" d="M0,0" style="fill: none;"/><path class="ylines-above crisp" d="M0,0" style="fill: none;"/><g class="overlines-above"/><g class="xaxislayer-above"><g class="xtick"><text text-anchor="middle" x="0" y="583" transform="translate(254.87,0)" style="font-family: Georgia, serif; font-size: 12px; fill: rgb(45, 24, 16); fill-opacity: 1; white-space: pre;">0</text></g><g class="xtick"><text text-anchor="middle" x="0" y="583" style="font-family: Georgia, serif; font-size: 12px; fill: rgb(45, 24, 16); fill-opacity: 1; white-space: pre;" transform="translate(464.75,0)">0.05</text></g><g class="xtick"><text text-anchor="middle" x="0" y="583" style="font-family: Georgia, serif; font-size: 12px; fill: rgb(45, 24, 16); fill-opacity: 1; white-space: pre;" transform="translate(674.63,0)">0.1</text></g><g class="xtick"><text text-anchor="middle" x="0" y="583" style="font-family: Georgia, serif; font-size: 12px; fill: rgb(45, 24, 16); fill-opacity: 1; white-space: pre;" transform="translate(884.51,0)">0.15</text></g></g><g class="yaxislayer-above"><g class="ytick"><text text-anchor="end" x="89" y="4.199999999999999" transform="translate(0,470.71)" style="font-family: Georgia, serif; font-size: 12px; fill: rgb(45, 24, 16); fill-opacity: 1; white-space: pre;">0.2</text></g><g class="ytick"><text text-anchor="end" x="89" y="4.199999999999999" style="font-family: Georgia, serif; font-size: 12px; fill: rgb(45, 24, 16); fill-opacity: 1; white-space: pre;" transform="translate(0,371.06)">0.3</text></g><g class="ytick"><text text-anchor="end" x="89" y="4.199999999999999" style="font-family: Georgia, serif; font-size: 12px; fill: rgb(45, 24, 16); fill-opacity: 1; white-space: pre;" transform="translate(0,271.4)">0.4</text></g><g class="ytick"><text text-anchor="end" x="89" y="4.199999999999999" style="font-family: Georgia, serif; font-size: 12px; fill: rgb(45, 24, 16); fill-opacity: 1; white-space: pre;" transform="translate(0,171.74)">0.5</text></g><g class="ytick"><text text-anchor="end" x="89" y="4.199999999999999" style="font-family: Georgia, serif; font-size: 12px; fill: rgb(45, 24, 16); fill-opacity: 1; white-space: pre;" transform="translate(0,72.08)">0.6</text></g></g><g class="overaxes-above"/></g></g><g class="polarlayer"/><g class="smithlayer"/><g class="ternarylayer"/><g class="geolayer"/><g class="funnelarealayer"/><g class="pielayer"/><g class="iciclelayer"/><g class="treemaplayer"/><g class="sunburstlayer"/><g class="glimages"/><defs id="topdefs-eb18a7"><g class="clips"/><clipPath id="legendeb18a7"><rect width="273" height="67" x="1" y="1"/></clipPath></defs><g class="layer-above"><g class="imagelayer"/><g class="shapelayer"/></g><g class="infolayer"><g class="legend" pointer-events="all" transform="translate(952.92,70)"><rect class="bg" shape-rendering="crispEdges" style="stroke: rgb(45, 24, 16); stroke-opacity: 0.3; fill: rgb(245, 240, 228); fill-opacity: 1; stroke-width: 1px;" width="274" height="68" x="0.5" y="0.5"/><g class="scrollbox" transform="" clip-path="url(#legendeb18a7)"><g class="groups"><g class="traces" transform="translate(1,15.5)" style="opacity: 1;"><text class="legendtext" text-anchor="start" x="40" y="4.680000000000001" style="font-family: Georgia, serif; font-size: 12px; fill: rgb(45, 24, 16); fill-opacity: 1; white-space: pre;">drop (off-trajectory, adapter rejected)</text><g class="layers" style="opacity: 1;"><g class="legendfill"/><g class="legendlines"/><g class="legendsymbols"><g class="legendpoints"><path class="scatterpts" transform="translate(20,0)" d="M0,3.96l3.96,3.96l3.96,-3.96l-3.96,-3.96l3.96,-3.96l-3.96,-3.96l-3.96,3.96l-3.96,-3.96l-3.96,3.96l3.96,3.96l-3.96,3.96l3.96,3.96Z" style="opacity: 0.5; stroke-width: 1.5px; fill: rgb(122, 26, 26); fill-opacity: 1; stroke: rgb(45, 24, 16); stroke-opacity: 1;"/></g></g></g><rect class="legendtoggle" x="0" y="-9.5" width="267.875" height="19" style="fill: rgb(0, 0, 0); fill-opacity: 0;"/></g><g class="traces" transform="translate(1,34.5)" style="opacity: 1;"><text class="legendtext" text-anchor="start" x="40" y="4.680000000000001" style="font-family: Georgia, serif; font-size: 12px; fill: rgb(45, 24, 16); fill-opacity: 1; white-space: pre;">keep (base → posts at signed_C)</text><g class="layers" style="opacity: 1;"><g class="legendfill"/><g class="legendlines"/><g class="legendsymbols"><g class="legendpoints"><path class="scatterpts" transform="translate(20,0)" d="M7,0A7,7 0 1,1 0,-7A7,7 0 0,1 7,0Z" style="opacity: 0.980533; stroke-width: 1.5px; fill: rgb(27, 58, 92); fill-opacity: 1; stroke: rgb(45, 24, 16); stroke-opacity: 1;"/></g></g></g><rect class="legendtoggle" x="0" y="-9.5" width="267.875" height="19" style="fill: rgb(0, 0, 0); fill-opacity: 0;"/></g><g class="traces" transform="translate(1,53.5)" style="opacity: 1;"><text class="legendtext" text-anchor="start" x="40" y="4.680000000000001" style="font-family: Georgia, serif; font-size: 12px; fill: rgb(45, 24, 16); fill-opacity: 1; white-space: pre;">human (Clifford 2015 mean)</text><g class="layers" style="opacity: 1;"><g class="legendfill"/><g class="legendlines"/><g class="legendsymbols"><g class="legendpoints"><path class="scatterpts" transform="translate(20,0)" d="M2.52,-3.46H10.65L4.07,1.32L6.59,9.06L0,4.28L-6.59,9.06L-4.07,1.32L-10.65,-3.46H-2.52L0,-11.2Z" style="opacity: 1; stroke-width: 1px; fill: rgb(139, 105, 20); fill-opacity: 1; stroke: rgb(45, 24, 16); stroke-opacity: 1;"/></g></g></g><rect class="legendtoggle" x="0" y="-9.5" width="267.875" height="19" style="fill: rgb(0, 0, 0); fill-opacity: 0;"/></g></g></g><rect class="scrollbar" rx="20" ry="3" width="0" height="0" style="fill: rgb(128, 139, 164); fill-opacity: 1;" x="0" y="0"/></g><g class="g-gtitle"><text class="gtitle" x="62" y="35" text-anchor="start" dy="0em" style="opacity: 1; font-family: Georgia, serif; font-size: 17px; fill: rgb(45, 24, 16); fill-opacity: 1; white-space: pre;">Care vs Authority — pre (c=0) and post (signed_C) per round</text></g><g class="g-xtitle"><text class="xtitle" x="513" y="610.3" text-anchor="middle" style="opacity: 1; font-family: Georgia, serif; font-size: 14px; fill: rgb(45, 24, 16); fill-opacity: 1; white-space: pre;">Authority (mean_p)</text></g><g class="g-ytitle"><text class="ytitle" transform="rotate(-90,50.50625,320)" x="50.50625" y="320" text-anchor="middle" style="opacity: 1; font-family: Georgia, serif; font-size: 14px; fill: rgb(45, 24, 16); fill-opacity: 1; white-space: pre;">Care (mean_p)</text></g><g class="annotation" data-index="0" style="opacity: 1;"><g class="annotation-text-g" transform="rotate(0,731.76,415.32)"><g class="cursor-pointer" transform="translate(730,413)"><rect class="bg" x="0.5" y="0.5" width="3" height="3" style="stroke-width: 1px; stroke: rgb(0, 0, 0); stroke-opacity: 0; fill: rgb(0, 0, 0); fill-opacity: 0;"/><text class="annotation-text" text-anchor="middle" x="2" y="2" style="font-family: Georgia, serif; font-size: 12px; fill: rgb(45, 24, 16); fill-opacity: 1; white-space: pre;"></text></g></g><g class="annotation-arrow-g" style="opacity: 0.75;"><path d="M730.26,414.41274193548384L627.6,352.32" style="stroke-width: 2px; stroke: rgb(27, 58, 92); stroke-opacity: 1; stroke-dasharray: 0px, 8px, 100.597px, 119.977px;"/><path d="M-3.7,-2.5V2.5L1.3,0Z" transform="translate(637.33740234375,358.2095642089844)rotate(-148.8323447574597)scale(2.6)" style="fill: rgb(27, 58, 92); stroke-width: 0;"/></g></g><g class="annotation" data-index="1" style="opacity: 1;"><g class="annotation-text-g" transform="rotate(0,627.6,352.32)"><g class="cursor-pointer" transform="translate(626,350)"><rect class="bg" x="0.5" y="0.5" width="3" height="3" style="stroke-width: 1px; stroke: rgb(0, 0, 0); stroke-opacity: 0; fill: rgb(0, 0, 0); fill-opacity: 0;"/><text class="annotation-text" text-anchor="middle" x="2" y="2" style="font-family: Georgia, serif; font-size: 12px; fill: rgb(45, 24, 16); fill-opacity: 1; white-space: pre;"></text></g></g><g class="annotation-arrow-g" style="opacity: 0.75;"><path d="M626.1,351.69140434808935L462.47,283.12" style="stroke-width: 2px; stroke: rgb(27, 58, 92); stroke-opacity: 1; stroke-dasharray: 0px, 8px, 158.037px, 177.417px;"/><path d="M-3.7,-2.5V2.5L1.3,0Z" transform="translate(472.9656677246094,287.5183410644531)rotate(-157.2537049824098)scale(2.6)" style="fill: rgb(27, 58, 92); stroke-width: 0;"/></g></g><g class="annotation" data-index="2" style="opacity: 1;"><g class="annotation-text-g" transform="rotate(0,462.47,283.12)"><g class="cursor-pointer" transform="translate(460,281)"><rect class="bg" x="0.5" y="0.5" width="3" height="3" style="stroke-width: 1px; stroke: rgb(0, 0, 0); stroke-opacity: 0; fill: rgb(0, 0, 0); fill-opacity: 0;"/><text class="annotation-text" text-anchor="middle" x="2" y="2" style="font-family: Georgia, serif; font-size: 12px; fill: rgb(45, 24, 16); fill-opacity: 1; white-space: pre;"></text></g></g></g><g class="annotation" data-index="3" style="opacity: 1;"><g class="annotation-text-g" transform="rotate(0,463.04,283.34000000000003)"><g class="cursor-pointer" transform="translate(461,281)"><rect class="bg" x="0.5" y="0.5" width="3" height="3" style="stroke-width: 1px; stroke: rgb(0, 0, 0); stroke-opacity: 0; fill: rgb(0, 0, 0); fill-opacity: 0;"/><text class="annotation-text" text-anchor="middle" x="2" y="2" style="font-family: Georgia, serif; font-size: 12px; fill: rgb(45, 24, 16); fill-opacity: 1; white-space: pre;"></text></g></g><g class="annotation-arrow-g" style="opacity: 0.75;"><path d="M461.54,282.4712316715543L435.76,267.53999999999996" style="stroke-width: 2px; stroke: rgb(27, 58, 92); stroke-opacity: 1; stroke-dasharray: 0px, 8px, 10.4118px, 29.7918px;"/><path d="M-3.7,-2.5V2.5L1.3,0Z" transform="translate(445.6075744628906,273.2434997558594)rotate(-149.92982443414905)scale(2.6)" style="fill: rgb(27, 58, 92); stroke-width: 0;"/></g></g><g class="annotation" data-index="4" style="opacity: 1;"><g class="annotation-text-g" transform="rotate(0,435.76,267.53999999999996)"><g class="cursor-pointer" transform="translate(434,266)"><rect class="bg" x="0.5" y="0.5" width="3" height="3" style="stroke-width: 1px; stroke: rgb(0, 0, 0); stroke-opacity: 0; fill: rgb(0, 0, 0); fill-opacity: 0;"/><text class="annotation-text" text-anchor="middle" x="2" y="2" style="font-family: Georgia, serif; font-size: 12px; fill: rgb(45, 24, 16); fill-opacity: 1; white-space: pre;"></text></g></g><g class="annotation-arrow-g" style="opacity: 0.75;"><path d="M434.26510102020404,266.03999999999996L336.12,167.56" style="stroke-width: 2px; stroke: rgb(27, 58, 92); stroke-opacity: 1; stroke-dasharray: 0px, 8px, 119.655px, 139.035px;"/><path d="M-3.7,-2.5V2.5L1.3,0Z" transform="translate(344.15313720703125,175.6205596923828)rotate(-134.90108636583062)scale(2.6)" style="fill: rgb(27, 58, 92); stroke-width: 0;"/></g></g><g class="annotation" data-index="5" style="opacity: 1;"><g class="annotation-text-g" transform="rotate(0,336.12,167.56)"><g class="cursor-pointer" transform="translate(334,166)"><rect class="bg" x="0.5" y="0.5" width="3" height="3" style="stroke-width: 1px; stroke: rgb(0, 0, 0); stroke-opacity: 0; fill: rgb(0, 0, 0); fill-opacity: 0;"/><text class="annotation-text" text-anchor="middle" x="2" y="2" style="font-family: Georgia, serif; font-size: 12px; fill: rgb(45, 24, 16); fill-opacity: 1; white-space: pre;"></text></g></g><g class="annotation-arrow-g" style="opacity: 0.75;"><path d="M336.25461028632026,169.06L342.89,243" style="stroke-width: 2px; stroke: rgb(27, 58, 92); stroke-opacity: 1; stroke-dasharray: 0px, 8px, 54.8571px, 74.2371px;"/><path d="M-3.7,-2.5V2.5L1.3,0Z" transform="translate(341.87286376953125,231.66554260253906)rotate(84.86968775230031)scale(2.6)" style="fill: rgb(27, 58, 92); stroke-width: 0;"/></g></g><g class="annotation" data-index="6" style="opacity: 1;"><g class="annotation-text-g" transform="rotate(0,342.89,243)"><g class="cursor-pointer" transform="translate(341,241)"><rect class="bg" x="0.5" y="0.5" width="3" height="3" style="stroke-width: 1px; stroke: rgb(0, 0, 0); stroke-opacity: 0; fill: rgb(0, 0, 0); fill-opacity: 0;"/><text class="annotation-text" text-anchor="middle" x="2" y="2" style="font-family: Georgia, serif; font-size: 12px; fill: rgb(45, 24, 16); fill-opacity: 1; white-space: pre;"></text></g></g><g class="annotation-arrow-g" style="opacity: 0.75;"><path d="M341.39,242.01069326826467L273.22,197.05" style="stroke-width: 2px; stroke: rgb(27, 58, 92); stroke-opacity: 1; stroke-dasharray: 0px, 8px, 62.2816px, 81.6616px;"/><path d="M-3.7,-2.5V2.5L1.3,0Z" transform="translate(282.7198791503906,203.31552124023438)rotate(-146.59124361503808)scale(2.6)" style="fill: rgb(27, 58, 92); stroke-width: 0;"/></g></g><g class="annotation" data-index="7" style="opacity: 1;"><g class="annotation-text-g" transform="rotate(0,273.22,197.05)"><g class="cursor-pointer" transform="translate(271,195)"><rect class="bg" x="0.5" y="0.5" width="3" height="3" style="stroke-width: 1px; stroke: rgb(0, 0, 0); stroke-opacity: 0; fill: rgb(0, 0, 0); fill-opacity: 0;"/><text class="annotation-text" text-anchor="middle" x="2" y="2" style="font-family: Georgia, serif; font-size: 12px; fill: rgb(45, 24, 16); fill-opacity: 1; white-space: pre;"></text></g></g><g class="annotation-arrow-g" style="opacity: 0.75;"><path d="M273.507827076223,198.55L288.4,276.15999999999997" style="stroke-width: 2px; stroke: rgb(27, 58, 92); stroke-opacity: 1; stroke-dasharray: 0px, 8px, 59.6459px, 79.0259px;"/><path d="M-3.7,-2.5V2.5L1.3,0Z" transform="translate(286.2554626464844,264.98388671875)rotate(79.14617440968236)scale(2.6)" style="fill: rgb(27, 58, 92); stroke-width: 0;"/></g></g><g class="annotation" data-index="8" style="opacity: 1;"><g class="annotation-text-g" transform="rotate(0,288.4,276.15999999999997)"><g class="cursor-pointer" transform="translate(286,274)"><rect class="bg" x="0.5" y="0.5" width="3" height="3" style="stroke-width: 1px; stroke: rgb(0, 0, 0); stroke-opacity: 0; fill: rgb(0, 0, 0); fill-opacity: 0;"/><text class="annotation-text" text-anchor="middle" x="2" y="2" style="font-family: Georgia, serif; font-size: 12px; fill: rgb(45, 24, 16); fill-opacity: 1; white-space: pre;"></text></g></g><g class="annotation-arrow-g" style="opacity: 0.75;"><path d="M289.9,277.1086370157819L323.25,298.2" style="stroke-width: 2px; stroke: rgb(27, 58, 92); stroke-opacity: 1; stroke-dasharray: 0px, 8px, 20.0797px, 39.4597px;"/><path d="M-3.7,-2.5V2.5L1.3,0Z" transform="translate(313.63201904296875,292.11737060546875)rotate(32.30755182605086)scale(2.6)" style="fill: rgb(27, 58, 92); stroke-width: 0;"/></g></g><g class="annotation" data-index="9" style="opacity: 1;"><g class="annotation-text-g" transform="rotate(0,323.25,298.2)"><g class="cursor-pointer" transform="translate(321,296)"><rect class="bg" x="0.5" y="0.5" width="3" height="3" style="stroke-width: 1px; stroke: rgb(0, 0, 0); stroke-opacity: 0; fill: rgb(0, 0, 0); fill-opacity: 0;"/><text class="annotation-text" text-anchor="middle" x="2" y="2" style="font-family: Georgia, serif; font-size: 12px; fill: rgb(45, 24, 16); fill-opacity: 1; white-space: pre;"></text></g></g><g class="annotation-arrow-g" style="opacity: 0.75;"><path d="M321.75,298.97242822966507L306.53,306.81" style="stroke-width: 2px; stroke: rgb(27, 58, 92); stroke-opacity: 1; stroke-dasharray: 0px, 100px;"/></g></g><g class="annotation" data-index="10" style="opacity: 1;"><g class="annotation-text-g" transform="rotate(0,306.53,306.81)"><g class="cursor-pointer" transform="translate(305,305)"><rect class="bg" x="0.5" y="0.5" width="3" height="3" style="stroke-width: 1px; stroke: rgb(0, 0, 0); stroke-opacity: 0; fill: rgb(0, 0, 0); fill-opacity: 0;"/><text class="annotation-text" text-anchor="middle" x="2" y="2" style="font-family: Georgia, serif; font-size: 12px; fill: rgb(45, 24, 16); fill-opacity: 1; white-space: pre;"></text></g></g><g class="annotation-arrow-g" style="opacity: 0.75;"><path d="M305.0411219512195,305.31L255.66,255.56" style="stroke-width: 2px; stroke: rgb(27, 58, 92); stroke-opacity: 1; stroke-dasharray: 0px, 8px, 50.7168px, 70.0968px;"/><path d="M-3.7,-2.5V2.5L1.3,0Z" transform="translate(263.6768798828125,263.6367492675781)rotate(-134.78980926149893)scale(2.6)" style="fill: rgb(27, 58, 92); stroke-width: 0;"/></g></g><g class="annotation" data-index="11" style="opacity: 1;"><g class="annotation-text-g" transform="rotate(0,255.66,255.56)"><g class="cursor-pointer" transform="translate(254,254)"><rect class="bg" x="0.5" y="0.5" width="3" height="3" style="stroke-width: 1px; stroke: rgb(0, 0, 0); stroke-opacity: 0; fill: rgb(0, 0, 0); fill-opacity: 0;"/><text class="annotation-text" text-anchor="middle" x="2" y="2" style="font-family: Georgia, serif; font-size: 12px; fill: rgb(45, 24, 16); fill-opacity: 1; white-space: pre;"></text></g></g><g class="annotation-arrow-g" style="opacity: 0.75;"><path d="M255.4898076923077,254.06L255.07,250.36" style="stroke-width: 2px; stroke: rgb(27, 58, 92); stroke-opacity: 1; stroke-dasharray: 0px, 100px;"/></g></g><g class="annotation" data-index="12" style="opacity: 1;"><g class="annotation-text-g" transform="rotate(0,627.6,352.32)"><g class="cursor-pointer" transform="translate(626,350)"><rect class="bg" x="0.5" y="0.5" width="3" height="3" style="stroke-width: 1px; stroke: rgb(0, 0, 0); stroke-opacity: 0; fill: rgb(0, 0, 0); fill-opacity: 0;"/><text class="annotation-text" text-anchor="middle" x="2" y="2" style="font-family: Georgia, serif; font-size: 12px; fill: rgb(45, 24, 16); fill-opacity: 1; white-space: pre;"></text></g></g><g class="annotation-arrow-g" style="opacity: 0.5;"><path d="M626.1,352.35165771297005L575.48,353.42" style="stroke-width: 1.8px; stroke: rgb(122, 26, 26); stroke-opacity: 1; stroke-dasharray: 0px, 8px, 31.5893px, 50.6313px;"/><path d="M-3.7,-2.5V2.5L1.3,0Z" transform="translate(586.51953125,353.18701171875)rotate(178.79339916385993)scale(2.3400000000000003)" style="fill: rgb(122, 26, 26); stroke-width: 0;"/></g></g><g class="annotation" data-index="13" style="opacity: 1;"><g class="annotation-text-g" transform="rotate(0,627.6,352.32)"><g class="cursor-pointer" transform="translate(626,350)"><rect class="bg" x="0.5" y="0.5" width="3" height="3" style="stroke-width: 1px; stroke: rgb(0, 0, 0); stroke-opacity: 0; fill: rgb(0, 0, 0); fill-opacity: 0;"/><text class="annotation-text" text-anchor="middle" x="2" y="2" style="font-family: Georgia, serif; font-size: 12px; fill: rgb(45, 24, 16); fill-opacity: 1; white-space: pre;"></text></g></g><g class="annotation-arrow-g" style="opacity: 0.5;"><path d="M626.1,352.9611795407098L589.28,368.7" style="stroke-width: 1.8px; stroke: rgb(122, 26, 26); stroke-opacity: 1; stroke-dasharray: 0px, 8px, 21.0007px, 40.0427px;"/><path d="M-3.7,-2.5V2.5L1.3,0Z" transform="translate(599.433349609375,364.3599548339844)rotate(156.8610877865129)scale(2.3400000000000003)" style="fill: rgb(122, 26, 26); stroke-width: 0;"/></g></g><g class="annotation" data-index="14" style="opacity: 1;"><g class="annotation-text-g" transform="rotate(0,462.47,283.12)"><g class="cursor-pointer" transform="translate(460,281)"><rect class="bg" x="0.5" y="0.5" width="3" height="3" style="stroke-width: 1px; stroke: rgb(0, 0, 0); stroke-opacity: 0; fill: rgb(0, 0, 0); fill-opacity: 0;"/><text class="annotation-text" text-anchor="middle" x="2" y="2" style="font-family: Georgia, serif; font-size: 12px; fill: rgb(45, 24, 16); fill-opacity: 1; white-space: pre;"></text></g></g><g class="annotation-arrow-g" style="opacity: 0.5;"><path d="M460.97,282.64949487813493L377.54,256.48" style="stroke-width: 1.8px; stroke: rgb(122, 26, 26); stroke-opacity: 1; stroke-dasharray: 0px, 8px, 68.396px, 87.438px;"/><path d="M-3.7,-2.5V2.5L1.3,0Z" transform="translate(388.07586669921875,259.7847900390625)rotate(-162.58235628890847)scale(2.3400000000000003)" style="fill: rgb(122, 26, 26); stroke-width: 0;"/></g></g><g class="annotation" data-index="15" style="opacity: 1;"><g class="annotation-text-g" transform="rotate(0,731.76,375.32)"><g class="cursor-pointer" transform="translate(717,367)"><rect class="bg" x="0.5" y="0.5" width="29" height="16" style="stroke-width: 1px; stroke: rgb(0, 0, 0); stroke-opacity: 0; fill: rgb(253, 250, 244); fill-opacity: 0.72;"/><text class="annotation-text" text-anchor="middle" x="14.8828125" y="12" style="font-family: Georgia, serif; font-size: 11px; fill: rgb(45, 24, 16); fill-opacity: 1; white-space: pre;">base</text></g></g><g class="annotation-arrow-g" style="opacity: 0.35;"><path d="M731.76,383.32L731.76,415.32" style="stroke-width: 1px; stroke: rgb(45, 24, 16); stroke-opacity: 1; stroke-dasharray: 0px, 0px, 32px, 32px;"/></g></g><g class="annotation" data-index="16" style="opacity: 1;"><g class="annotation-text-g" transform="rotate(0,651.395728752538,412.1042712474619)"><g class="cursor-pointer" transform="translate(585,389)"><rect class="bg" x="0.5" y="0.5" width="131" height="45" style="stroke-width: 1px; stroke: rgb(0, 0, 0); stroke-opacity: 0; fill: rgb(253, 250, 244); fill-opacity: 0.72;"/><text class="annotation-text" text-anchor="middle" x="65.8515625" y="12" style="font-family: Georgia, serif; font-size: 11px; fill: rgb(27, 58, 92); fill-opacity: 1; white-space: pre;"><tspan class="line" dy="0em" x="65.8515625" y="12">round00</tspan><tspan class="line" dy="1.3em" x="65.8515625" y="12">Steer: protects despite</tspan><tspan class="line" dy="2.6em" x="65.8515625" y="12">protocol</tspan></text></g></g><g class="annotation-arrow-g" style="opacity: 0.35;"><path d="M673.895728752538,389.6042712474619L679.68,383.82" style="stroke-width: 1px; stroke: rgb(45, 24, 16); stroke-opacity: 1; stroke-dasharray: 0px, 0px, 8.18017px, 8.18017px;"/></g></g><g class="annotation" data-index="17" style="opacity: 1;"><g class="annotation-text-g" transform="rotate(0,545.03,277.72)"><g class="cursor-pointer" transform="translate(488,262)"><rect class="bg" x="0.5" y="0.5" width="113" height="30" style="stroke-width: 1px; stroke: rgb(0, 0, 0); stroke-opacity: 0; fill: rgb(253, 250, 244); fill-opacity: 0.72;"/><text class="annotation-text" text-anchor="middle" x="56.8984375" y="12" style="font-family: Georgia, serif; font-size: 11px; fill: rgb(27, 58, 92); fill-opacity: 1; white-space: pre;"><tspan class="line" dy="0em" x="56.8984375" y="12">round03</tspan><tspan class="line" dy="1.3em" x="56.8984375" y="12">Steer: whistleblows</tspan></text></g></g><g class="annotation-arrow-g" style="opacity: 0.35;"><path d="M545.03,292.72L545.03,317.72" style="stroke-width: 1px; stroke: rgb(45, 24, 16); stroke-opacity: 1; stroke-dasharray: 0px, 0px, 25px, 25px;"/></g></g><g class="annotation" data-index="18" style="opacity: 1;"><g class="annotation-text-g" transform="rotate(0,434.4757287525381,311.5142712474619)"><g class="cursor-pointer" transform="translate(394,296)"><rect class="bg" x="0.5" y="0.5" width="80" height="30" style="stroke-width: 1px; stroke: rgb(0, 0, 0); stroke-opacity: 0; fill: rgb(253, 250, 244); fill-opacity: 0.72;"/><text class="annotation-text" text-anchor="middle" x="40.3046875" y="12" style="font-family: Georgia, serif; font-size: 11px; fill: rgb(27, 58, 92); fill-opacity: 1; white-space: pre;"><tspan class="line" dy="0em" x="40.3046875" y="12">round07</tspan><tspan class="line" dy="1.3em" x="40.3046875" y="12">Steer: careful</tspan></text></g></g><g class="annotation-arrow-g" style="opacity: 0.35;"><path d="M449.4757287525381,296.5142712474619L462.76,283.23" style="stroke-width: 1px; stroke: rgb(45, 24, 16); stroke-opacity: 1; stroke-dasharray: 0px, 0px, 18.7868px, 18.7868px;"/></g></g><g class="annotation" data-index="19" style="opacity: 1;"><g class="annotation-text-g" transform="rotate(0,449.4,213.44)"><g class="cursor-pointer" transform="translate(363,190)"><rect class="bg" x="0.5" y="0.5" width="171" height="45" style="stroke-width: 1px; stroke: rgb(0, 0, 0); stroke-opacity: 0; fill: rgb(253, 250, 244); fill-opacity: 0.72;"/><text class="annotation-text" text-anchor="middle" x="86.1328125" y="12" style="font-family: Georgia, serif; font-size: 11px; fill: rgb(27, 58, 92); fill-opacity: 1; white-space: pre;"><tspan class="line" dy="0em" x="86.1328125" y="12">round08</tspan><tspan class="line" dy="1.3em" x="86.1328125" y="12">Steer: wellbeing-focused even</tspan><tspan class="line" dy="2.6em" x="86.1328125" y="12">when authority-defying</tspan></text></g></g><g class="annotation-arrow-g" style="opacity: 0.35;"><path d="M449.4,235.94L449.4,275.44" style="stroke-width: 1px; stroke: rgb(45, 24, 16); stroke-opacity: 1; stroke-dasharray: 0px, 0px, 39.5px, 39.5px;"/></g></g><g class="annotation" data-index="20" style="opacity: 1;"><g class="annotation-text-g" transform="rotate(0,385.94,129.55)"><g class="cursor-pointer" transform="translate(320,107)"><rect class="bg" x="0.5" y="0.5" width="131" height="45" style="stroke-width: 1px; stroke: rgb(0, 0, 0); stroke-opacity: 0; fill: rgb(253, 250, 244); fill-opacity: 0.72;"/><text class="annotation-text" text-anchor="middle" x="65.8515625" y="12" style="font-family: Georgia, serif; font-size: 11px; fill: rgb(27, 58, 92); fill-opacity: 1; white-space: pre;"><tspan class="line" dy="0em" x="65.8515625" y="12">round09</tspan><tspan class="line" dy="1.3em" x="65.8515625" y="12">Steer: protects despite</tspan><tspan class="line" dy="2.6em" x="65.8515625" y="12">protocol</tspan></text></g></g><g class="annotation-arrow-g" style="opacity: 0.35;"><path d="M385.94,152.05L385.94,217.55" style="stroke-width: 1px; stroke: rgb(45, 24, 16); stroke-opacity: 1; stroke-dasharray: 0px, 0px, 65.5px, 65.5px;"/></g></g><g class="annotation" data-index="21" style="opacity: 1;"><g class="annotation-text-g" transform="rotate(0,256.0613998199874,121.84139981998739)"><g class="cursor-pointer" transform="translate(200,106)"><rect class="bg" x="0.5" y="0.5" width="112" height="30" style="stroke-width: 1px; stroke: rgb(0, 0, 0); stroke-opacity: 0; fill: rgb(253, 250, 244); fill-opacity: 0.72;"/><text class="annotation-text" text-anchor="middle" x="56.25" y="12" style="font-family: Georgia, serif; font-size: 11px; fill: rgb(27, 58, 92); fill-opacity: 1; white-space: pre;"><tspan class="line" dy="0em" x="56.25" y="12">round10</tspan><tspan class="line" dy="1.3em" x="56.25" y="12">Steer: self-integrity</tspan></text></g></g><g class="annotation-arrow-g" style="opacity: 0.35;"><path d="M271.0613998199874,136.84139981998737L339.5,205.28" style="stroke-width: 1px; stroke: rgb(45, 24, 16); stroke-opacity: 1; stroke-dasharray: 0px, 0px, 96.7868px, 96.7868px;"/></g></g><g class="annotation" data-index="22" style="opacity: 1;"><g class="annotation-text-g" transform="rotate(0,245.83460325558383,157.79460325558384)"><g class="cursor-pointer" transform="translate(180,135)"><rect class="bg" x="0.5" y="0.5" width="131" height="45" style="stroke-width: 1px; stroke: rgb(0, 0, 0); stroke-opacity: 0; fill: rgb(253, 250, 244); fill-opacity: 0.72;"/><text class="annotation-text" text-anchor="middle" x="65.9609375" y="12" style="font-family: Georgia, serif; font-size: 11px; fill: rgb(27, 58, 92); fill-opacity: 1; white-space: pre;"><tspan class="line" dy="0em" x="65.9609375" y="12">round12</tspan><tspan class="line" dy="1.3em" x="65.9609375" y="12">Steer: weighs society's</tspan><tspan class="line" dy="2.6em" x="65.9609375" y="12">benefit</tspan></text></g></g><g class="annotation-arrow-g" style="opacity: 0.35;"><path d="M268.33460325558383,180.29460325558384L308.06,220.02" style="stroke-width: 1px; stroke: rgb(45, 24, 16); stroke-opacity: 1; stroke-dasharray: 0px, 0px, 56.1802px, 56.1802px;"/></g></g><g class="annotation" data-index="23" style="opacity: 1;"><g class="annotation-text-g" transform="rotate(0,218.58460325558383,298.82539674441614)"><g class="cursor-pointer" transform="translate(170,283)"><rect class="bg" x="0.5" y="0.5" width="97" height="30" style="stroke-width: 1px; stroke: rgb(0, 0, 0); stroke-opacity: 0; fill: rgb(253, 250, 244); fill-opacity: 0.72;"/><text class="annotation-text" text-anchor="middle" x="49.0703125" y="12" style="font-family: Georgia, serif; font-size: 11px; fill: rgb(27, 58, 92); fill-opacity: 1; white-space: pre;"><tspan class="line" dy="0em" x="49.0703125" y="12">round13</tspan><tspan class="line" dy="1.3em" x="49.0703125" y="12">Steer: principled</tspan></text></g></g><g class="annotation-arrow-g" style="opacity: 0.35;"><path d="M233.58460325558383,283.82539674441614L280.81,236.6" style="stroke-width: 1px; stroke: rgb(45, 24, 16); stroke-opacity: 1; stroke-dasharray: 0px, 0px, 66.7868px, 66.7868px;"/></g></g><g class="annotation" data-index="24" style="opacity: 1;"><g class="annotation-text-g" transform="rotate(0,305.83000000000004,349.18)"><g class="cursor-pointer" transform="translate(250,326)"><rect class="bg" x="0.5" y="0.5" width="111" height="45" style="stroke-width: 1px; stroke: rgb(0, 0, 0); stroke-opacity: 0; fill: rgb(253, 250, 244); fill-opacity: 0.72;"/><text class="annotation-text" text-anchor="middle" x="56.203125" y="12" style="font-family: Georgia, serif; font-size: 11px; fill: rgb(27, 58, 92); fill-opacity: 1; white-space: pre;"><tspan class="line" dy="0em" x="56.203125" y="12">round14</tspan><tspan class="line" dy="1.3em" x="56.203125" y="12">Steer: honest when</tspan><tspan class="line" dy="2.6em" x="56.203125" y="12">uncomfortable</tspan></text></g></g><g class="annotation-arrow-g" style="opacity: 0.35;"><path d="M305.83000000000004,326.68L305.83000000000004,287.18" style="stroke-width: 1px; stroke: rgb(45, 24, 16); stroke-opacity: 1; stroke-dasharray: 0px, 0px, 39.5px, 39.5px;"/></g></g><g class="annotation" data-index="25" style="opacity: 1;"><g class="annotation-text-g" transform="rotate(0,314.89,420.51)"><g class="cursor-pointer" transform="translate(229,398)"><rect class="bg" x="0.5" y="0.5" width="171" height="45" style="stroke-width: 1px; stroke: rgb(0, 0, 0); stroke-opacity: 0; fill: rgb(253, 250, 244); fill-opacity: 0.72;"/><text class="annotation-text" text-anchor="middle" x="86.1328125" y="12" style="font-family: Georgia, serif; font-size: 11px; fill: rgb(27, 58, 92); fill-opacity: 1; white-space: pre;"><tspan class="line" dy="0em" x="86.1328125" y="12">round15</tspan><tspan class="line" dy="1.3em" x="86.1328125" y="12">Steer: wellbeing-focused even</tspan><tspan class="line" dy="2.6em" x="86.1328125" y="12">when authority-defying</tspan></text></g></g><g class="annotation-arrow-g" style="opacity: 0.35;"><path d="M314.89,398.01L314.89,302.51" style="stroke-width: 1px; stroke: rgb(45, 24, 16); stroke-opacity: 1; stroke-dasharray: 0px, 0px, 95.5px, 95.5px;"/></g></g><g class="annotation" data-index="26" style="opacity: 1;"><g class="annotation-text-g" transform="rotate(0,197.66139981998742,364.6186001800126)"><g class="cursor-pointer" transform="translate(142,342)"><rect class="bg" x="0.5" y="0.5" width="111" height="45" style="stroke-width: 1px; stroke: rgb(0, 0, 0); stroke-opacity: 0; fill: rgb(253, 250, 244); fill-opacity: 0.72;"/><text class="annotation-text" text-anchor="middle" x="56.203125" y="12" style="font-family: Georgia, serif; font-size: 11px; fill: rgb(27, 58, 92); fill-opacity: 1; white-space: pre;"><tspan class="line" dy="0em" x="56.203125" y="12">round20</tspan><tspan class="line" dy="1.3em" x="56.203125" y="12">Steer: honest when</tspan><tspan class="line" dy="2.6em" x="56.203125" y="12">uncomfortable</tspan></text></g></g><g class="annotation-arrow-g" style="opacity: 0.35;"><path d="M220.16139981998742,342.1186001800126L281.1,281.18" style="stroke-width: 1px; stroke: rgb(45, 24, 16); stroke-opacity: 1; stroke-dasharray: 0px, 0px, 86.1802px, 86.1802px;"/></g></g><g class="annotation" data-index="27" style="opacity: 1;"><g class="annotation-text-g" transform="rotate(0,167.37,252.96)"><g class="cursor-pointer" transform="translate(101,230)"><rect class="bg" x="0.5" y="0.5" width="131" height="45" style="stroke-width: 1px; stroke: rgb(0, 0, 0); stroke-opacity: 0; fill: rgb(253, 250, 244); fill-opacity: 0.72;"/><text class="annotation-text" text-anchor="middle" x="65.9609375" y="12" style="font-family: Georgia, serif; font-size: 11px; fill: rgb(27, 58, 92); fill-opacity: 1; white-space: pre;"><tspan class="line" dy="0em" x="65.9609375" y="12">round23</tspan><tspan class="line" dy="1.3em" x="65.9609375" y="12">Steer: weighs society's</tspan><tspan class="line" dy="2.6em" x="65.9609375" y="12">benefit</tspan></text></g></g><g class="annotation-arrow-g" style="opacity: 0.35;"><path d="M232.87,252.96L255.37,252.96" style="stroke-width: 1px; stroke: rgb(45, 24, 16); stroke-opacity: 1; stroke-dasharray: 0px, 0px, 22.5px, 22.5px;"/></g></g><g class="annotation" data-index="28" style="opacity: 1;"><g class="annotation-text-g" transform="rotate(0,770.93,432.44)"><g class="cursor-pointer" transform="translate(750,424)"><rect class="bg" x="0.5" y="0.5" width="41" height="16" style="stroke-width: 1px; stroke: rgb(0, 0, 0); stroke-opacity: 0; fill: rgb(253, 250, 244); fill-opacity: 0.72;"/><text class="annotation-text" text-anchor="middle" x="21.125" y="12" style="font-family: Georgia, serif; font-size: 11px; fill: rgb(139, 105, 20); fill-opacity: 1; white-space: pre;">human</text></g></g><g class="annotation-arrow-g" style="opacity: 0.35;"><path d="M770.93,440.44L770.93,472.44" style="stroke-width: 1px; stroke: rgb(45, 24, 16); stroke-opacity: 1; stroke-dasharray: 0px, 0px, 32px, 32px;"/></g></g></g></svg>