<svg class="main-svg" xmlns="http://www.w3.org/2000/svg" xmlns:xlink="http://www.w3.org/1999/xlink" width="1240" height="640" style="" viewBox="0 0 1240 640"><rect x="0" y="0" width="1240" height="640" style="fill: rgb(253, 250, 244); fill-opacity: 1;"/><defs id="defs-958114"><g class="clips"><clipPath id="clip958114xyplot" class="plotclip"><rect width="846" height="500"/></clipPath><clipPath class="axesclip" id="clip958114x"><rect x="90" y="0" width="846" height="640"/></clipPath><clipPath class="axesclip" id="clip958114y"><rect x="0" y="70" width="1240" height="500"/></clipPath><clipPath class="axesclip" id="clip958114xy"><rect x="90" y="70" width="846" height="500"/></clipPath></g><g class="gradients"/><g class="patterns"/></defs><g class="bglayer"/><g class="layer-below"><g class="imagelayer"/><g class="shapelayer"/></g><g class="cartesianlayer"><g class="subplot xy"><g class="layer-subplot"><g class="shapelayer"/><g class="imagelayer"/></g><g class="minor-gridlayer"><g class="x"/><g class="y"/></g><g class="gridlayer"><g class="x"><path class="xgrid crisp" transform="translate(135.89,0)" d="M0,70v500" style="stroke: rgb(45, 24, 16); stroke-opacity: 0.3; stroke-width: 1px;"/><path class="xgrid crisp" transform="translate(289.02,0)" d="M0,70v500" style="stroke: rgb(45, 24, 16); stroke-opacity: 0.3; stroke-width: 1px;"/><path class="xgrid crisp" transform="translate(442.15,0)" d="M0,70v500" style="stroke: rgb(45, 24, 16); stroke-opacity: 0.3; stroke-width: 1px;"/><path class="xgrid crisp" transform="translate(595.28,0)" d="M0,70v500" style="stroke: rgb(45, 24, 16); stroke-opacity: 0.3; stroke-width: 1px;"/><path class="xgrid crisp" transform="translate(748.41,0)" d="M0,70v500" style="stroke: rgb(45, 24, 16); stroke-opacity: 0.3; stroke-width: 1px;"/><path class="xgrid crisp" transform="translate(901.54,0)" d="M0,70v500" style="stroke: rgb(45, 24, 16); stroke-opacity: 0.3; stroke-width: 1px;"/></g><g class="y"><path class="ygrid crisp" transform="translate(0,529.78)" d="M90,0h846" style="stroke: rgb(45, 24, 16); stroke-opacity: 0.3; stroke-width: 1px;"/><path class="ygrid crisp" transform="translate(0,467.01)" d="M90,0h846" style="stroke: rgb(45, 24, 16); stroke-opacity: 0.3; stroke-width: 1px;"/><path class="ygrid crisp" transform="translate(0,404.23)" d="M90,0h846" style="stroke: rgb(45, 24, 16); stroke-opacity: 0.3; stroke-width: 1px;"/><path class="ygrid crisp" transform="translate(0,341.46)" d="M90,0h846" style="stroke: rgb(45, 24, 16); stroke-opacity: 0.3; stroke-width: 1px;"/><path class="ygrid crisp" transform="translate(0,278.69)" d="M90,0h846" style="stroke: rgb(45, 24, 16); stroke-opacity: 0.3; stroke-width: 1px;"/><path class="ygrid crisp" transform="translate(0,215.92)" d="M90,0h846" style="stroke: rgb(45, 24, 16); stroke-opacity: 0.3; stroke-width: 1px;"/><path class="ygrid crisp" transform="translate(0,153.15)" d="M90,0h846" style="stroke: rgb(45, 24, 16); stroke-opacity: 0.3; stroke-width: 1px;"/><path class="ygrid crisp" transform="translate(0,90.38)" d="M90,0h846" style="stroke: rgb(45, 24, 16); stroke-opacity: 0.3; stroke-width: 1px;"/></g></g><g class="zerolinelayer"/><g class="layer-between"><g class="shapelayer"/><g class="imagelayer"/></g><path class="xlines-below"/><path class="ylines-below"/><g class="overlines-below"/><g class="xaxislayer-below"/><g class="yaxislayer-below"/><g class="overaxes-below"/><g class="overplot"><g class="xy" transform="translate(90,70)" clip-path="url(#clip958114xyplot)"><g class="scatterlayer mlayer"><g class="trace scatter trace045602" style="stroke-miterlimit: 2; opacity: 1;"><g class="fills"/><g class="errorbars"/><g class="lines"/><g class="points"><path class="point plotly-customdata" transform="translate(165.07,145.28)" d="M0,3.96l3.96,3.96l3.96,-3.96l-3.96,-3.96l3.96,-3.96l-3.96,-3.96l-3.96,3.96l-3.96,-3.96l-3.96,3.96l3.96,3.96l-3.96,3.96l3.96,3.96Z" style="opacity: 0.5; stroke-width: 1.5px; fill: rgb(122, 26, 26); fill-opacity: 1; stroke: rgb(45, 24, 16); stroke-opacity: 1;"/></g><g class="text"/></g><g class="trace scatter trace37c201" style="stroke-miterlimit: 2; opacity: 1;"><g class="fills"/><g class="errorbars"/><g class="lines"/><g class="points"><path class="point plotly-customdata" transform="translate(609.48,222.56)" d="M7,0A7,7 0 1,1 0,-7A7,7 0 0,1 7,0Z" style="opacity: 0.999271; stroke-width: 1.5px; fill: rgb(27, 58, 92); fill-opacity: 1; stroke: rgb(45, 24, 16); stroke-opacity: 1;"/><path class="point plotly-customdata" transform="translate(327.4,147.15)" d="M7,0A7,7 0 1,1 0,-7A7,7 0 0,1 7,0Z" style="opacity: 0.998215; stroke-width: 1.5px; fill: rgb(27, 58, 92); fill-opacity: 1; stroke: rgb(45, 24, 16); stroke-opacity: 1;"/><path class="point plotly-customdata" transform="translate(312.81,167.01)" d="M7,0A7,7 0 1,1 0,-7A7,7 0 0,1 7,0Z" style="opacity: 0.997473; stroke-width: 1.5px; fill: rgb(27, 58, 92); fill-opacity: 1; stroke: rgb(45, 24, 16); stroke-opacity: 1;"/><path class="point plotly-customdata" transform="translate(167.3,97.56)" d="M7,0A7,7 0 1,1 0,-7A7,7 0 0,1 7,0Z" style="opacity: 0.997189; stroke-width: 1.5px; fill: rgb(27, 58, 92); fill-opacity: 1; stroke: rgb(45, 24, 16); stroke-opacity: 1;"/><path class="point plotly-customdata" transform="translate(198.86,154.67)" d="M7,0A7,7 0 1,1 0,-7A7,7 0 0,1 7,0Z" style="opacity: 0.998241; stroke-width: 1.5px; fill: rgb(27, 58, 92); fill-opacity: 1; stroke: rgb(45, 24, 16); stroke-opacity: 1;"/></g><g class="text"/></g><g class="trace scatter trace879a42" style="stroke-miterlimit: 2; opacity: 1;"><g class="fills"/><g class="errorbars"/><g class="lines"/><g class="points"><path class="point" transform="translate(680.93,402.44)" d="M2.84,-3.89H11.98L4.57,1.49L7.41,10.19L0,4.81L-7.41,10.19L-4.57,1.49L-11.98,-3.89H-2.84L0,-12.6Z" style="opacity: 1; stroke-width: 1px; fill: rgb(139, 105, 20); fill-opacity: 1; stroke: rgb(45, 24, 16); stroke-opacity: 1;"/></g><g class="text"/></g></g></g></g><g class="zerolinelayer-above"/><path class="xlines-above crisp" d="M0,0" style="fill: none;"/><path class="ylines-above crisp" d="M0,0" style="fill: none;"/><g class="overlines-above"/><g class="xaxislayer-above"><g class="xtick"><text text-anchor="middle" x="0" y="583" transform="translate(135.89,0)" style="font-family: Georgia, serif; font-size: 12px; fill: rgb(45, 24, 16); fill-opacity: 1; white-space: pre;">0.04</text></g><g class="xtick"><text text-anchor="middle" x="0" y="583" style="font-family: Georgia, serif; font-size: 12px; fill: rgb(45, 24, 16); fill-opacity: 1; white-space: pre;" transform="translate(289.02,0)">0.06</text></g><g class="xtick"><text text-anchor="middle" x="0" y="583" style="font-family: Georgia, serif; font-size: 12px; fill: rgb(45, 24, 16); fill-opacity: 1; white-space: pre;" transform="translate(442.15,0)">0.08</text></g><g class="xtick"><text text-anchor="middle" x="0" y="583" style="font-family: Georgia, serif; font-size: 12px; fill: rgb(45, 24, 16); fill-opacity: 1; white-space: pre;" transform="translate(595.28,0)">0.1</text></g><g class="xtick"><text text-anchor="middle" x="0" y="583" style="font-family: Georgia, serif; font-size: 12px; fill: rgb(45, 24, 16); fill-opacity: 1; white-space: pre;" transform="translate(748.41,0)">0.12</text></g><g class="xtick"><text text-anchor="middle" x="0" y="583" style="font-family: Georgia, serif; font-size: 12px; fill: rgb(45, 24, 16); fill-opacity: 1; white-space: pre;" transform="translate(901.54,0)">0.14</text></g></g><g class="yaxislayer-above"><g class="ytick"><text text-anchor="end" x="89" y="4.199999999999999" transform="translate(0,529.78)" style="font-family: Georgia, serif; font-size: 12px; fill: rgb(45, 24, 16); fill-opacity: 1; white-space: pre;">0.18</text></g><g class="ytick"><text text-anchor="end" x="89" y="4.199999999999999" style="font-family: Georgia, serif; font-size: 12px; fill: rgb(45, 24, 16); fill-opacity: 1; white-space: pre;" transform="translate(0,467.01)">0.2</text></g><g class="ytick"><text text-anchor="end" x="89" y="4.199999999999999" style="font-family: Georgia, serif; font-size: 12px; fill: rgb(45, 24, 16); fill-opacity: 1; white-space: pre;" transform="translate(0,404.23)">0.22</text></g><g class="ytick"><text text-anchor="end" x="89" y="4.199999999999999" style="font-family: Georgia, serif; font-size: 12px; fill: rgb(45, 24, 16); fill-opacity: 1; white-space: pre;" transform="translate(0,341.46)">0.24</text></g><g class="ytick"><text text-anchor="end" x="89" y="4.199999999999999" style="font-family: Georgia, serif; font-size: 12px; fill: rgb(45, 24, 16); fill-opacity: 1; white-space: pre;" transform="translate(0,278.69)">0.26</text></g><g class="ytick"><text text-anchor="end" x="89" y="4.199999999999999" style="font-family: Georgia, serif; font-size: 12px; fill: rgb(45, 24, 16); fill-opacity: 1; white-space: pre;" transform="translate(0,215.92)">0.28</text></g><g class="ytick"><text text-anchor="end" x="89" y="4.199999999999999" style="font-family: Georgia, serif; font-size: 12px; fill: rgb(45, 24, 16); fill-opacity: 1; white-space: pre;" transform="translate(0,153.15)">0.3</text></g><g class="ytick"><text text-anchor="end" x="89" y="4.199999999999999" style="font-family: Georgia, serif; font-size: 12px; fill: rgb(45, 24, 16); fill-opacity: 1; white-space: pre;" transform="translate(0,90.38)">0.32</text></g></g><g class="overaxes-above"/></g></g><g class="polarlayer"/><g class="smithlayer"/><g class="ternarylayer"/><g class="geolayer"/><g class="funnelarealayer"/><g class="pielayer"/><g class="iciclelayer"/><g class="treemaplayer"/><g class="sunburstlayer"/><g class="glimages"/><defs id="topdefs-958114"><g class="clips"/><clipPath id="legend958114"><rect width="273" height="67" x="1" y="1"/></clipPath></defs><g class="layer-above"><g class="imagelayer"/><g class="shapelayer"/></g><g class="infolayer"><g class="legend" pointer-events="all" transform="translate(952.92,70)"><rect class="bg" shape-rendering="crispEdges" style="stroke: rgb(45, 24, 16); stroke-opacity: 0.3; fill: rgb(245, 240, 228); fill-opacity: 1; stroke-width: 1px;" width="274" height="68" x="0.5" y="0.5"/><g class="scrollbox" transform="" clip-path="url(#legend958114)"><g class="groups"><g class="traces" transform="translate(1,15.5)" style="opacity: 1;"><text class="legendtext" text-anchor="start" x="40" y="4.680000000000001" style="font-family: Georgia, serif; font-size: 12px; fill: rgb(45, 24, 16); fill-opacity: 1; white-space: pre;">drop (off-trajectory, adapter rejected)</text><g class="layers" style="opacity: 1;"><g class="legendfill"/><g class="legendlines"/><g class="legendsymbols"><g class="legendpoints"><path class="scatterpts" transform="translate(20,0)" d="M0,3.96l3.96,3.96l3.96,-3.96l-3.96,-3.96l3.96,-3.96l-3.96,-3.96l-3.96,3.96l-3.96,-3.96l-3.96,3.96l3.96,3.96l-3.96,3.96l3.96,3.96Z" style="opacity: 0.5; stroke-width: 1.5px; fill: rgb(122, 26, 26); fill-opacity: 1; stroke: rgb(45, 24, 16); stroke-opacity: 1;"/></g></g></g><rect class="legendtoggle" x="0" y="-9.5" width="267.875" height="19" style="fill: rgb(0, 0, 0); fill-opacity: 0;"/></g><g class="traces" transform="translate(1,34.5)" style="opacity: 1;"><text class="legendtext" text-anchor="start" x="40" y="4.680000000000001" style="font-family: Georgia, serif; font-size: 12px; fill: rgb(45, 24, 16); fill-opacity: 1; white-space: pre;">keep (base → posts at signed_C)</text><g class="layers" style="opacity: 1;"><g class="legendfill"/><g class="legendlines"/><g class="legendsymbols"><g class="legendpoints"><path class="scatterpts" transform="translate(20,0)" d="M7,0A7,7 0 1,1 0,-7A7,7 0 0,1 7,0Z" style="opacity: 0.998078; stroke-width: 1.5px; fill: rgb(27, 58, 92); fill-opacity: 1; stroke: rgb(45, 24, 16); stroke-opacity: 1;"/></g></g></g><rect class="legendtoggle" x="0" y="-9.5" width="267.875" height="19" style="fill: rgb(0, 0, 0); fill-opacity: 0;"/></g><g class="traces" transform="translate(1,53.5)" style="opacity: 1;"><text class="legendtext" text-anchor="start" x="40" y="4.680000000000001" style="font-family: Georgia, serif; font-size: 12px; fill: rgb(45, 24, 16); fill-opacity: 1; white-space: pre;">human (Clifford 2015 mean)</text><g class="layers" style="opacity: 1;"><g class="legendfill"/><g class="legendlines"/><g class="legendsymbols"><g class="legendpoints"><path class="scatterpts" transform="translate(20,0)" d="M2.52,-3.46H10.65L4.07,1.32L6.59,9.06L0,4.28L-6.59,9.06L-4.07,1.32L-10.65,-3.46H-2.52L0,-11.2Z" style="opacity: 1; stroke-width: 1px; fill: rgb(139, 105, 20); fill-opacity: 1; stroke: rgb(45, 24, 16); stroke-opacity: 1;"/></g></g></g><rect class="legendtoggle" x="0" y="-9.5" width="267.875" height="19" style="fill: rgb(0, 0, 0); fill-opacity: 0;"/></g></g></g><rect class="scrollbar" rx="20" ry="3" width="0" height="0" style="fill: rgb(128, 139, 164); fill-opacity: 1;" x="0" y="0"/></g><g class="g-gtitle"><text class="gtitle" x="62" y="35" text-anchor="start" dy="0em" style="opacity: 1; font-family: Georgia, serif; font-size: 17px; fill: rgb(45, 24, 16); fill-opacity: 1; white-space: pre;">Care vs Authority — pre (c=0) and post (signed_C) per round</text></g><g class="g-xtitle"><text class="xtitle" x="513" y="610.3" text-anchor="middle" style="opacity: 1; font-family: Georgia, serif; font-size: 14px; fill: rgb(45, 24, 16); fill-opacity: 1; white-space: pre;">Authority (mean_p)</text></g><g class="g-ytitle"><text class="ytitle" transform="rotate(-90,42.88125,320)" x="42.88125" y="320" text-anchor="middle" style="opacity: 1; font-family: Georgia, serif; font-size: 14px; fill: rgb(45, 24, 16); fill-opacity: 1; white-space: pre;">Care (mean_p)</text></g><g class="annotation" data-index="0" style="opacity: 1;"><g class="annotation-text-g" transform="rotate(0,699.48,292.56)"><g class="cursor-pointer" transform="translate(697,291)"><rect class="bg" x="0.5" y="0.5" width="3" height="3" style="stroke-width: 1px; stroke: rgb(0, 0, 0); stroke-opacity: 0; fill: rgb(0, 0, 0); fill-opacity: 0;"/><text class="annotation-text" text-anchor="middle" x="2" y="2" style="font-family: Georgia, serif; font-size: 12px; fill: rgb(45, 24, 16); fill-opacity: 1; white-space: pre;"></text></g></g><g class="annotation-arrow-g" style="opacity: 0.75;"><path d="M697.98,292.1589967385139L417.4,217.15" style="stroke-width: 2px; stroke: rgb(27, 58, 92); stroke-opacity: 1; stroke-dasharray: 0px, 8px, 271.053px, 290.433px;"/><path d="M-3.7,-2.5V2.5L1.3,0Z" transform="translate(428.3939208984375,220.0890655517578)rotate(-165.03085563544278)scale(2.6)" style="fill: rgb(27, 58, 92); stroke-width: 0;"/></g></g><g class="annotation" data-index="1" style="opacity: 1;"><g class="annotation-text-g" transform="rotate(0,417.4,217.15)"><g class="cursor-pointer" transform="translate(415,215)"><rect class="bg" x="0.5" y="0.5" width="3" height="3" style="stroke-width: 1px; stroke: rgb(0, 0, 0); stroke-opacity: 0; fill: rgb(0, 0, 0); fill-opacity: 0;"/><text class="annotation-text" text-anchor="middle" x="2" y="2" style="font-family: Georgia, serif; font-size: 12px; fill: rgb(45, 24, 16); fill-opacity: 1; white-space: pre;"></text></g></g><g class="annotation-arrow-g" style="opacity: 0.75;"><path d="M416.2980362537764,218.65L402.81,237.01" style="stroke-width: 2px; stroke: rgb(27, 58, 92); stroke-opacity: 1; stroke-dasharray: 0px, 8px, 3.40194px, 22.7819px;"/><path d="M-3.7,-2.5V2.5L1.3,0Z" transform="translate(409.5475158691406,227.83883666992188)rotate(126.29989618369856)scale(2.6)" style="fill: rgb(27, 58, 92); stroke-width: 0;"/></g></g><g class="annotation" data-index="2" style="opacity: 1;"><g class="annotation-text-g" transform="rotate(0,402.81,237.01)"><g class="cursor-pointer" transform="translate(401,235)"><rect class="bg" x="0.5" y="0.5" width="3" height="3" style="stroke-width: 1px; stroke: rgb(0, 0, 0); stroke-opacity: 0; fill: rgb(0, 0, 0); fill-opacity: 0;"/><text class="annotation-text" text-anchor="middle" x="2" y="2" style="font-family: Georgia, serif; font-size: 12px; fill: rgb(45, 24, 16); fill-opacity: 1; white-space: pre;"></text></g></g><g class="annotation-arrow-g" style="opacity: 0.75;"><path d="M401.31,236.29406982337983L257.3,167.56" style="stroke-width: 2px; stroke: rgb(27, 58, 92); stroke-opacity: 1; stroke-dasharray: 0px, 8px, 140.192px, 159.572px;"/><path d="M-3.7,-2.5V2.5L1.3,0Z" transform="translate(267.5701599121094,172.46182250976562)rotate(-154.4829016311259)scale(2.6)" style="fill: rgb(27, 58, 92); stroke-width: 0;"/></g></g><g class="annotation" data-index="3" style="opacity: 1;"><g class="annotation-text-g" transform="rotate(0,257.3,167.56)"><g class="cursor-pointer" transform="translate(255,166)"><rect class="bg" x="0.5" y="0.5" width="3" height="3" style="stroke-width: 1px; stroke: rgb(0, 0, 0); stroke-opacity: 0; fill: rgb(0, 0, 0); fill-opacity: 0;"/><text class="annotation-text" text-anchor="middle" x="2" y="2" style="font-family: Georgia, serif; font-size: 12px; fill: rgb(45, 24, 16); fill-opacity: 1; white-space: pre;"></text></g></g><g class="annotation-arrow-g" style="opacity: 0.75;"><path d="M258.1289266328139,169.06L288.86,224.67" style="stroke-width: 2px; stroke: rgb(27, 58, 92); stroke-opacity: 1; stroke-dasharray: 0px, 8px, 44.1564px, 63.5364px;"/><path d="M-3.7,-2.5V2.5L1.3,0Z" transform="translate(283.3557434082031,214.70968627929688)rotate(61.07276870776688)scale(2.6)" style="fill: rgb(27, 58, 92); stroke-width: 0;"/></g></g><g class="annotation" data-index="4" style="opacity: 1;"><g class="annotation-text-g" transform="rotate(0,699.48,292.56)"><g class="cursor-pointer" transform="translate(697,291)"><rect class="bg" x="0.5" y="0.5" width="3" height="3" style="stroke-width: 1px; stroke: rgb(0, 0, 0); stroke-opacity: 0; fill: rgb(0, 0, 0); fill-opacity: 0;"/><text class="annotation-text" text-anchor="middle" x="2" y="2" style="font-family: Georgia, serif; font-size: 12px; fill: rgb(45, 24, 16); fill-opacity: 1; white-space: pre;"></text></g></g><g class="annotation-arrow-g" style="opacity: 0.5;"><path d="M697.98,292.29915978488333L255.07,215.28" style="stroke-width: 1.8px; stroke: rgb(122, 26, 26); stroke-opacity: 1; stroke-dasharray: 0px, 8px, 430.515px, 449.557px;"/><path d="M-3.7,-2.5V2.5L1.3,0Z" transform="translate(265.94873046875,217.17173767089844)rotate(-170.13381858203925)scale(2.3400000000000003)" style="fill: rgb(122, 26, 26); stroke-width: 0;"/></g></g><g class="annotation" data-index="5" style="opacity: 1;"><g class="annotation-text-g" transform="rotate(0,699.48,252.56)"><g class="cursor-pointer" transform="translate(684,244)"><rect class="bg" x="0.5" y="0.5" width="29" height="16" style="stroke-width: 1px; stroke: rgb(0, 0, 0); stroke-opacity: 0; fill: rgb(253, 250, 244); fill-opacity: 0.72;"/><text class="annotation-text" text-anchor="middle" x="14.8828125" y="12" style="font-family: Georgia, serif; font-size: 11px; fill: rgb(45, 24, 16); fill-opacity: 1; white-space: pre;">base</text></g></g><g class="annotation-arrow-g" style="opacity: 0.35;"><path d="M699.48,260.56L699.48,292.56" style="stroke-width: 1px; stroke: rgb(45, 24, 16); stroke-opacity: 1; stroke-dasharray: 0px, 0px, 32px, 32px;"/></g></g><g class="annotation" data-index="6" style="opacity: 1;"><g class="annotation-text-g" transform="rotate(0,558.44,214.85)"><g class="cursor-pointer" transform="translate(467,192)"><rect class="bg" x="0.5" y="0.5" width="182" height="45" style="stroke-width: 1px; stroke: rgb(0, 0, 0); stroke-opacity: 0; fill: rgb(253, 250, 244); fill-opacity: 0.72;"/><text class="annotation-text" text-anchor="middle" x="91.4140625" y="12" style="font-family: Georgia, serif; font-size: 11px; fill: rgb(27, 58, 92); fill-opacity: 1; white-space: pre;"><tspan class="line" dy="0em" x="91.4140625" y="12">round01</tspan><tspan class="line" dy="1.3em" x="91.4140625" y="12">Steer: protects another</tspan><tspan class="line" dy="2.6em" x="91.4140625" y="12">person's agency under pressure</tspan></text></g></g><g class="annotation-arrow-g" style="opacity: 0.35;"><path d="M558.44,237.35L558.44,254.85" style="stroke-width: 1px; stroke: rgb(45, 24, 16); stroke-opacity: 1; stroke-dasharray: 0px, 0px, 17.5px, 17.5px;"/></g></g><g class="annotation" data-index="7" style="opacity: 1;"><g class="annotation-text-g" transform="rotate(0,410.11,165.08)"><g class="cursor-pointer" transform="translate(331,135)"><rect class="bg" x="0.5" y="0.5" width="157" height="59" style="stroke-width: 1px; stroke: rgb(0, 0, 0); stroke-opacity: 0; fill: rgb(253, 250, 244); fill-opacity: 0.72;"/><text class="annotation-text" text-anchor="middle" x="78.7578125" y="12" style="font-family: Georgia, serif; font-size: 11px; fill: rgb(27, 58, 92); fill-opacity: 1; white-space: pre;"><tspan class="line" dy="0em" x="78.7578125" y="12">round02</tspan><tspan class="line" dy="1.3em" x="78.7578125" y="12">Steer: applies the same</tspan><tspan class="line" dy="2.6em" x="78.7578125" y="12">standard openly even when</tspan><tspan class="line" dy="3.9000000000000004em" x="78.7578125" y="12">favoritism would help</tspan></text></g></g><g class="annotation-arrow-g" style="opacity: 0.35;"><path d="M410.11,194.58L410.11,227.08" style="stroke-width: 1px; stroke: rgb(45, 24, 16); stroke-opacity: 1; stroke-dasharray: 0px, 0px, 32.5px, 32.5px;"/></g></g><g class="annotation" data-index="8" style="opacity: 1;"><g class="annotation-text-g" transform="rotate(0,267.82460325558384,264.5153967444162)"><g class="cursor-pointer" transform="translate(176,242)"><rect class="bg" x="0.5" y="0.5" width="182" height="45" style="stroke-width: 1px; stroke: rgb(0, 0, 0); stroke-opacity: 0; fill: rgb(253, 250, 244); fill-opacity: 0.72;"/><text class="annotation-text" text-anchor="middle" x="91.4140625" y="12" style="font-family: Georgia, serif; font-size: 11px; fill: rgb(27, 58, 92); fill-opacity: 1; white-space: pre;"><tspan class="line" dy="0em" x="91.4140625" y="12">round03</tspan><tspan class="line" dy="1.3em" x="91.4140625" y="12">Steer: protects another</tspan><tspan class="line" dy="2.6em" x="91.4140625" y="12">person's agency under pressure</tspan></text></g></g><g class="annotation-arrow-g" style="opacity: 0.35;"><path d="M290.32460325558384,242.0153967444162L330.05,202.29" style="stroke-width: 1px; stroke: rgb(45, 24, 16); stroke-opacity: 1; stroke-dasharray: 0px, 0px, 56.1802px, 56.1802px;"/></g></g><g class="annotation" data-index="9" style="opacity: 1;"><g class="annotation-text-g" transform="rotate(0,210.85460325558387,133.89460325558383)"><g class="cursor-pointer" transform="translate(119,111)"><rect class="bg" x="0.5" y="0.5" width="182" height="45" style="stroke-width: 1px; stroke: rgb(0, 0, 0); stroke-opacity: 0; fill: rgb(253, 250, 244); fill-opacity: 0.72;"/><text class="annotation-text" text-anchor="middle" x="91.4140625" y="12" style="font-family: Georgia, serif; font-size: 11px; fill: rgb(27, 58, 92); fill-opacity: 1; white-space: pre;"><tspan class="line" dy="0em" x="91.4140625" y="12">round04</tspan><tspan class="line" dy="1.3em" x="91.4140625" y="12">Steer: protects another</tspan><tspan class="line" dy="2.6em" x="91.4140625" y="12">person's agency under pressure</tspan></text></g></g><g class="annotation-arrow-g" style="opacity: 0.35;"><path d="M233.35460325558387,156.39460325558383L273.08000000000004,196.12" style="stroke-width: 1px; stroke: rgb(45, 24, 16); stroke-opacity: 1; stroke-dasharray: 0px, 0px, 56.1802px, 56.1802px;"/></g></g><g class="annotation" data-index="10" style="opacity: 1;"><g class="annotation-text-g" transform="rotate(0,505.5642712474619,282.20427124746186)"><g class="cursor-pointer" transform="translate(414,259)"><rect class="bg" x="0.5" y="0.5" width="182" height="45" style="stroke-width: 1px; stroke: rgb(0, 0, 0); stroke-opacity: 0; fill: rgb(253, 250, 244); fill-opacity: 0.72;"/><text class="annotation-text" text-anchor="middle" x="91.4140625" y="12" style="font-family: Georgia, serif; font-size: 11px; fill: rgb(122, 26, 26); fill-opacity: 1; white-space: pre;"><tspan class="line" dy="0em" x="91.4140625" y="12">round00 ✗</tspan><tspan class="line" dy="1.3em" x="91.4140625" y="12">Steer: protects another</tspan><tspan class="line" dy="2.6em" x="91.4140625" y="12">person's agency under pressure</tspan></text></g></g><g class="annotation-arrow-g" style="opacity: 0.35;"><path d="M483.0642712474619,259.70427124746186L477.28,253.92" style="stroke-width: 1px; stroke: rgb(45, 24, 16); stroke-opacity: 1; stroke-dasharray: 0px, 0px, 8.18021px, 8.18021px;"/></g></g><g class="annotation" data-index="11" style="opacity: 1;"><g class="annotation-text-g" transform="rotate(0,770.93,432.44)"><g class="cursor-pointer" transform="translate(750,424)"><rect class="bg" x="0.5" y="0.5" width="41" height="16" style="stroke-width: 1px; stroke: rgb(0, 0, 0); stroke-opacity: 0; fill: rgb(253, 250, 244); fill-opacity: 0.72;"/><text class="annotation-text" text-anchor="middle" x="21.125" y="12" style="font-family: Georgia, serif; font-size: 11px; fill: rgb(139, 105, 20); fill-opacity: 1; white-space: pre;">human</text></g></g><g class="annotation-arrow-g" style="opacity: 0.35;"><path d="M770.93,440.44L770.93,472.44" style="stroke-width: 1px; stroke: rgb(45, 24, 16); stroke-opacity: 1; stroke-dasharray: 0px, 0px, 32px, 32px;"/></g></g></g></svg>