<svg class="main-svg" xmlns="http://www.w3.org/2000/svg" xmlns:xlink="http://www.w3.org/1999/xlink" width="1240" height="640" style="" viewBox="0 0 1240 640"><rect x="0" y="0" width="1240" height="640" style="fill: rgb(253, 250, 244); fill-opacity: 1;"/><defs id="defs-131222"><g class="clips"><clipPath id="clip131222xyplot" class="plotclip"><rect width="846" height="500"/></clipPath><clipPath class="axesclip" id="clip131222x"><rect x="90" y="0" width="846" height="640"/></clipPath><clipPath class="axesclip" id="clip131222y"><rect x="0" y="70" width="1240" height="500"/></clipPath><clipPath class="axesclip" id="clip131222xy"><rect x="90" y="70" width="846" height="500"/></clipPath></g><g class="gradients"/><g class="patterns"/></defs><g class="bglayer"/><g class="layer-below"><g class="imagelayer"/><g class="shapelayer"/></g><g class="cartesianlayer"><g class="subplot xy"><g class="layer-subplot"><g class="shapelayer"/><g class="imagelayer"/></g><g class="minor-gridlayer"><g class="x"/><g class="y"/></g><g class="gridlayer"><g class="x"><path class="xgrid crisp" transform="translate(157.14,0)" d="M0,70v500" style="stroke: rgb(45, 24, 16); stroke-opacity: 0.3; stroke-width: 1px;"/><path class="xgrid crisp" transform="translate(243.02,0)" d="M0,70v500" style="stroke: rgb(45, 24, 16); stroke-opacity: 0.3; stroke-width: 1px;"/><path class="xgrid crisp" transform="translate(328.9,0)" d="M0,70v500" style="stroke: rgb(45, 24, 16); stroke-opacity: 0.3; stroke-width: 1px;"/><path class="xgrid crisp" transform="translate(414.78,0)" d="M0,70v500" style="stroke: rgb(45, 24, 16); stroke-opacity: 0.3; stroke-width: 1px;"/><path class="xgrid crisp" transform="translate(500.66,0)" d="M0,70v500" style="stroke: rgb(45, 24, 16); stroke-opacity: 0.3; stroke-width: 1px;"/><path class="xgrid crisp" transform="translate(586.54,0)" d="M0,70v500" style="stroke: rgb(45, 24, 16); stroke-opacity: 0.3; stroke-width: 1px;"/><path class="xgrid crisp" transform="translate(672.42,0)" d="M0,70v500" style="stroke: rgb(45, 24, 16); stroke-opacity: 0.3; stroke-width: 1px;"/><path class="xgrid crisp" transform="translate(758.3,0)" d="M0,70v500" style="stroke: rgb(45, 24, 16); stroke-opacity: 0.3; stroke-width: 1px;"/><path class="xgrid crisp" transform="translate(844.18,0)" d="M0,70v500" style="stroke: rgb(45, 24, 16); stroke-opacity: 0.3; stroke-width: 1px;"/><path class="xgrid crisp" transform="translate(930.06,0)" d="M0,70v500" style="stroke: rgb(45, 24, 16); stroke-opacity: 0.3; stroke-width: 1px;"/></g><g class="y"><path class="ygrid crisp" transform="translate(0,553.5799999999999)" d="M90,0h846" style="stroke: rgb(45, 24, 16); stroke-opacity: 0.3; stroke-width: 1px;"/><path class="ygrid crisp" transform="translate(0,471.01)" d="M90,0h846" style="stroke: rgb(45, 24, 16); stroke-opacity: 0.3; stroke-width: 1px;"/><path class="ygrid crisp" transform="translate(0,388.44)" d="M90,0h846" style="stroke: rgb(45, 24, 16); stroke-opacity: 0.3; stroke-width: 1px;"/><path class="ygrid crisp" transform="translate(0,305.87)" d="M90,0h846" style="stroke: rgb(45, 24, 16); stroke-opacity: 0.3; stroke-width: 1px;"/><path class="ygrid crisp" transform="translate(0,223.3)" d="M90,0h846" style="stroke: rgb(45, 24, 16); stroke-opacity: 0.3; stroke-width: 1px;"/><path class="ygrid crisp" transform="translate(0,140.73000000000002)" d="M90,0h846" style="stroke: rgb(45, 24, 16); stroke-opacity: 0.3; stroke-width: 1px;"/></g></g><g class="zerolinelayer"/><g class="layer-between"><g class="shapelayer"/><g class="imagelayer"/></g><path class="xlines-below"/><path class="ylines-below"/><g class="overlines-below"/><g class="xaxislayer-below"/><g class="yaxislayer-below"/><g class="overaxes-below"/><g class="overplot"><g class="xy" transform="translate(90,70)" clip-path="url(#clip131222xyplot)"><g class="scatterlayer mlayer"><g class="trace scatter trace1d2e89" style="stroke-miterlimit: 2; opacity: 1;"><g class="fills"/><g class="errorbars"/><g class="lines"/><g class="points"><path class="point plotly-customdata" transform="translate(182.34,230.17)" d="M0,3.96l3.96,3.96l3.96,-3.96l-3.96,-3.96l3.96,-3.96l-3.96,-3.96l-3.96,3.96l-3.96,-3.96l-3.96,3.96l3.96,3.96l-3.96,3.96l3.96,3.96Z" style="opacity: 0.5; stroke-width: 1.5px; fill: rgb(122, 26, 26); fill-opacity: 1; stroke: rgb(45, 24, 16); stroke-opacity: 1;"/><path class="point plotly-customdata" transform="translate(176.6,97.56)" d="M0,3.96l3.96,3.96l3.96,-3.96l-3.96,-3.96l3.96,-3.96l-3.96,-3.96l-3.96,3.96l-3.96,-3.96l-3.96,3.96l3.96,3.96l-3.96,3.96l3.96,3.96Z" style="opacity: 0.5; stroke-width: 1.5px; fill: rgb(122, 26, 26); fill-opacity: 1; stroke: rgb(45, 24, 16); stroke-opacity: 1;"/><path class="point plotly-customdata" transform="translate(228.11,240.46)" d="M0,3.96l3.96,3.96l3.96,-3.96l-3.96,-3.96l3.96,-3.96l-3.96,-3.96l-3.96,3.96l-3.96,-3.96l-3.96,3.96l3.96,3.96l-3.96,3.96l3.96,3.96Z" style="opacity: 0.5; stroke-width: 1.5px; fill: rgb(122, 26, 26); fill-opacity: 1; stroke: rgb(45, 24, 16); stroke-opacity: 1;"/></g><g class="text"/></g><g class="trace scatter tracea51410" style="stroke-miterlimit: 2; opacity: 1;"><g class="fills"/><g class="errorbars"/><g class="lines"/><g class="points"><path class="point plotly-customdata" transform="translate(640.86,355.12)" d="M7,0A7,7 0 1,1 0,-7A7,7 0 0,1 7,0Z" style="opacity: 0.999271; stroke-width: 1.5px; fill: rgb(27, 58, 92); fill-opacity: 1; stroke: rgb(45, 24, 16); stroke-opacity: 1;"/><path class="point plotly-customdata" transform="translate(445.2,279.34)" d="M7,0A7,7 0 1,1 0,-7A7,7 0 0,1 7,0Z" style="opacity: 0.998208; stroke-width: 1.5px; fill: rgb(27, 58, 92); fill-opacity: 1; stroke: rgb(45, 24, 16); stroke-opacity: 1;"/><path class="point plotly-customdata" transform="translate(341.81,266.94)" d="M7,0A7,7 0 1,1 0,-7A7,7 0 0,1 7,0Z" style="opacity: 0.994335; stroke-width: 1.5px; fill: rgb(27, 58, 92); fill-opacity: 1; stroke: rgb(45, 24, 16); stroke-opacity: 1;"/><path class="point plotly-customdata" transform="translate(277.87,239.69)" d="M7,0A7,7 0 1,1 0,-7A7,7 0 0,1 7,0Z" style="opacity: 0.996972; stroke-width: 1.5px; fill: rgb(27, 58, 92); fill-opacity: 1; stroke: rgb(45, 24, 16); stroke-opacity: 1;"/><path class="point plotly-customdata" transform="translate(240.83,198.07)" d="M7,0A7,7 0 1,1 0,-7A7,7 0 0,1 7,0Z" style="opacity: 0.998059; stroke-width: 1.5px; fill: rgb(27, 58, 92); fill-opacity: 1; stroke: rgb(45, 24, 16); stroke-opacity: 1;"/><path class="point plotly-customdata" transform="translate(208.84,220.06)" d="M7,0A7,7 0 1,1 0,-7A7,7 0 0,1 7,0Z" style="opacity: 0.997086; stroke-width: 1.5px; fill: rgb(27, 58, 92); fill-opacity: 1; stroke: rgb(45, 24, 16); stroke-opacity: 1;"/><path class="point plotly-customdata" transform="translate(165.07,147.14)" d="M7,0A7,7 0 1,1 0,-7A7,7 0 0,1 7,0Z" style="opacity: 0.986132; stroke-width: 1.5px; fill: rgb(27, 58, 92); fill-opacity: 1; stroke: rgb(45, 24, 16); stroke-opacity: 1;"/><path class="point plotly-customdata" transform="translate(165.7,151.44)" d="M7,0A7,7 0 1,1 0,-7A7,7 0 0,1 7,0Z" style="opacity: 0.974435; stroke-width: 1.5px; fill: rgb(27, 58, 92); fill-opacity: 1; stroke: rgb(45, 24, 16); stroke-opacity: 1;"/></g><g class="text"/></g><g class="trace scatter trace9871e8" style="stroke-miterlimit: 2; opacity: 1;"><g class="fills"/><g class="errorbars"/><g class="lines"/><g class="points"><path class="point" transform="translate(680.93,402.44)" d="M2.84,-3.89H11.98L4.57,1.49L7.41,10.19L0,4.81L-7.41,10.19L-4.57,1.49L-11.98,-3.89H-2.84L0,-12.6Z" style="opacity: 1; stroke-width: 1px; fill: rgb(139, 105, 20); fill-opacity: 1; stroke: rgb(45, 24, 16); stroke-opacity: 1;"/></g><g class="text"/></g></g></g></g><g class="zerolinelayer-above"/><path class="xlines-above crisp" d="M0,0" style="fill: none;"/><path class="ylines-above crisp" d="M0,0" style="fill: none;"/><g class="overlines-above"/><g class="xaxislayer-above"><g class="xtick"><text text-anchor="middle" x="0" y="583" transform="translate(157.14,0)" style="font-family: Georgia, serif; font-size: 12px; fill: rgb(45, 24, 16); fill-opacity: 1; white-space: pre;">−0.02</text></g><g class="xtick"><text text-anchor="middle" x="0" y="583" style="font-family: Georgia, serif; font-size: 12px; fill: rgb(45, 24, 16); fill-opacity: 1; white-space: pre;" transform="translate(243.02,0)">0</text></g><g class="xtick"><text text-anchor="middle" x="0" y="583" style="font-family: Georgia, serif; font-size: 12px; fill: rgb(45, 24, 16); fill-opacity: 1; white-space: pre;" transform="translate(328.9,0)">0.02</text></g><g class="xtick"><text text-anchor="middle" x="0" y="583" style="font-family: Georgia, serif; font-size: 12px; fill: rgb(45, 24, 16); fill-opacity: 1; white-space: pre;" transform="translate(414.78,0)">0.04</text></g><g class="xtick"><text text-anchor="middle" x="0" y="583" style="font-family: Georgia, serif; font-size: 12px; fill: rgb(45, 24, 16); fill-opacity: 1; white-space: pre;" transform="translate(500.66,0)">0.06</text></g><g class="xtick"><text text-anchor="middle" x="0" y="583" style="font-family: Georgia, serif; font-size: 12px; fill: rgb(45, 24, 16); fill-opacity: 1; white-space: pre;" transform="translate(586.54,0)">0.08</text></g><g class="xtick"><text text-anchor="middle" x="0" y="583" style="font-family: Georgia, serif; font-size: 12px; fill: rgb(45, 24, 16); fill-opacity: 1; white-space: pre;" transform="translate(672.42,0)">0.1</text></g><g class="xtick"><text text-anchor="middle" x="0" y="583" style="font-family: Georgia, serif; font-size: 12px; fill: rgb(45, 24, 16); fill-opacity: 1; white-space: pre;" transform="translate(758.3,0)">0.12</text></g><g class="xtick"><text text-anchor="middle" x="0" y="583" style="font-family: Georgia, serif; font-size: 12px; fill: rgb(45, 24, 16); fill-opacity: 1; white-space: pre;" transform="translate(844.18,0)">0.14</text></g><g class="xtick"><text text-anchor="middle" x="0" y="583" style="font-family: Georgia, serif; font-size: 12px; fill: rgb(45, 24, 16); fill-opacity: 1; white-space: pre;" transform="translate(930.06,0)">0.16</text></g></g><g class="yaxislayer-above"><g class="ytick"><text text-anchor="end" x="89" y="4.199999999999999" transform="translate(0,553.5799999999999)" style="font-family: Georgia, serif; font-size: 12px; fill: rgb(45, 24, 16); fill-opacity: 1; white-space: pre;">0.1</text></g><g class="ytick"><text text-anchor="end" x="89" y="4.199999999999999" style="font-family: Georgia, serif; font-size: 12px; fill: rgb(45, 24, 16); fill-opacity: 1; white-space: pre;" transform="translate(0,471.01)">0.2</text></g><g class="ytick"><text text-anchor="end" x="89" y="4.199999999999999" style="font-family: Georgia, serif; font-size: 12px; fill: rgb(45, 24, 16); fill-opacity: 1; white-space: pre;" transform="translate(0,388.44)">0.3</text></g><g class="ytick"><text text-anchor="end" x="89" y="4.199999999999999" style="font-family: Georgia, serif; font-size: 12px; fill: rgb(45, 24, 16); fill-opacity: 1; white-space: pre;" transform="translate(0,305.87)">0.4</text></g><g class="ytick"><text text-anchor="end" x="89" y="4.199999999999999" style="font-family: Georgia, serif; font-size: 12px; fill: rgb(45, 24, 16); fill-opacity: 1; white-space: pre;" transform="translate(0,223.3)">0.5</text></g><g class="ytick"><text text-anchor="end" x="89" y="4.199999999999999" style="font-family: Georgia, serif; font-size: 12px; fill: rgb(45, 24, 16); fill-opacity: 1; white-space: pre;" transform="translate(0,140.73000000000002)">0.6</text></g></g><g class="overaxes-above"/></g></g><g class="polarlayer"/><g class="smithlayer"/><g class="ternarylayer"/><g class="geolayer"/><g class="funnelarealayer"/><g class="pielayer"/><g class="iciclelayer"/><g class="treemaplayer"/><g class="sunburstlayer"/><g class="glimages"/><defs id="topdefs-131222"><g class="clips"/><clipPath id="legend131222"><rect width="273" height="67" x="1" y="1"/></clipPath></defs><g class="layer-above"><g class="imagelayer"/><g class="shapelayer"/></g><g class="infolayer"><g class="legend" pointer-events="all" transform="translate(952.92,70)"><rect class="bg" shape-rendering="crispEdges" style="stroke: rgb(45, 24, 16); stroke-opacity: 0.3; fill: rgb(245, 240, 228); fill-opacity: 1; stroke-width: 1px;" width="274" height="68" x="0.5" y="0.5"/><g class="scrollbox" transform="" clip-path="url(#legend131222)"><g class="groups"><g class="traces" transform="translate(1,15.5)" style="opacity: 1;"><text class="legendtext" text-anchor="start" x="40" y="4.680000000000001" style="font-family: Georgia, serif; font-size: 12px; fill: rgb(45, 24, 16); fill-opacity: 1; white-space: pre;">drop (off-trajectory, adapter rejected)</text><g class="layers" style="opacity: 1;"><g class="legendfill"/><g class="legendlines"/><g class="legendsymbols"><g class="legendpoints"><path class="scatterpts" transform="translate(20,0)" d="M0,3.96l3.96,3.96l3.96,-3.96l-3.96,-3.96l3.96,-3.96l-3.96,-3.96l-3.96,3.96l-3.96,-3.96l-3.96,3.96l3.96,3.96l-3.96,3.96l3.96,3.96Z" style="opacity: 0.5; stroke-width: 1.5px; fill: rgb(122, 26, 26); fill-opacity: 1; stroke: rgb(45, 24, 16); stroke-opacity: 1;"/></g></g></g><rect class="legendtoggle" x="0" y="-9.5" width="267.875" height="19" style="fill: rgb(0, 0, 0); fill-opacity: 0;"/></g><g class="traces" transform="translate(1,34.5)" style="opacity: 1;"><text class="legendtext" text-anchor="start" x="40" y="4.680000000000001" style="font-family: Georgia, serif; font-size: 12px; fill: rgb(45, 24, 16); fill-opacity: 1; white-space: pre;">keep (base → posts at signed_C)</text><g class="layers" style="opacity: 1;"><g class="legendfill"/><g class="legendlines"/><g class="legendsymbols"><g class="legendpoints"><path class="scatterpts" transform="translate(20,0)" d="M7,0A7,7 0 1,1 0,-7A7,7 0 0,1 7,0Z" style="opacity: 0.993062; stroke-width: 1.5px; fill: rgb(27, 58, 92); fill-opacity: 1; stroke: rgb(45, 24, 16); stroke-opacity: 1;"/></g></g></g><rect class="legendtoggle" x="0" y="-9.5" width="267.875" height="19" style="fill: rgb(0, 0, 0); fill-opacity: 0;"/></g><g class="traces" transform="translate(1,53.5)" style="opacity: 1;"><text class="legendtext" text-anchor="start" x="40" y="4.680000000000001" style="font-family: Georgia, serif; font-size: 12px; fill: rgb(45, 24, 16); fill-opacity: 1; white-space: pre;">human (Clifford 2015 mean)</text><g class="layers" style="opacity: 1;"><g class="legendfill"/><g class="legendlines"/><g class="legendsymbols"><g class="legendpoints"><path class="scatterpts" transform="translate(20,0)" d="M2.52,-3.46H10.65L4.07,1.32L6.59,9.06L0,4.28L-6.59,9.06L-4.07,1.32L-10.65,-3.46H-2.52L0,-11.2Z" style="opacity: 1; stroke-width: 1px; fill: rgb(139, 105, 20); fill-opacity: 1; stroke: rgb(45, 24, 16); stroke-opacity: 1;"/></g></g></g><rect class="legendtoggle" x="0" y="-9.5" width="267.875" height="19" style="fill: rgb(0, 0, 0); fill-opacity: 0;"/></g></g></g><rect class="scrollbar" rx="20" ry="3" width="0" height="0" style="fill: rgb(128, 139, 164); fill-opacity: 1;" x="0" y="0"/></g><g class="g-gtitle"><text class="gtitle" x="62" y="35" text-anchor="start" dy="0em" style="opacity: 1; font-family: Georgia, serif; font-size: 17px; fill: rgb(45, 24, 16); fill-opacity: 1; white-space: pre;">Care vs Authority — pre (c=0) and post (signed_C) per round</text></g><g class="g-xtitle"><text class="xtitle" x="513" y="610.3" text-anchor="middle" style="opacity: 1; font-family: Georgia, serif; font-size: 14px; fill: rgb(45, 24, 16); fill-opacity: 1; white-space: pre;">Authority (mean_p)</text></g><g class="g-ytitle"><text class="ytitle" transform="rotate(-90,50.50625,320)" x="50.50625" y="320" text-anchor="middle" style="opacity: 1; font-family: Georgia, serif; font-size: 14px; fill: rgb(45, 24, 16); fill-opacity: 1; white-space: pre;">Care (mean_p)</text></g><g class="annotation" data-index="0" style="opacity: 1;"><g class="annotation-text-g" transform="rotate(0,730.86,425.12)"><g class="cursor-pointer" transform="translate(729,423)"><rect class="bg" x="0.5" y="0.5" width="3" height="3" style="stroke-width: 1px; stroke: rgb(0, 0, 0); stroke-opacity: 0; fill: rgb(0, 0, 0); fill-opacity: 0;"/><text class="annotation-text" text-anchor="middle" x="2" y="2" style="font-family: Georgia, serif; font-size: 12px; fill: rgb(45, 24, 16); fill-opacity: 1; white-space: pre;"></text></g></g><g class="annotation-arrow-g" style="opacity: 0.75;"><path d="M729.36,424.5390432382705L535.2,349.34" style="stroke-width: 2px; stroke: rgb(27, 58, 92); stroke-opacity: 1; stroke-dasharray: 0px, 8px, 188.834px, 208.214px;"/><path d="M-3.7,-2.5V2.5L1.3,0Z" transform="translate(545.8118896484375,353.4500427246094)rotate(-158.8219107580387)scale(2.6)" style="fill: rgb(27, 58, 92); stroke-width: 0;"/></g></g><g class="annotation" data-index="1" style="opacity: 1;"><g class="annotation-text-g" transform="rotate(0,535.2,349.34)"><g class="cursor-pointer" transform="translate(533,347)"><rect class="bg" x="0.5" y="0.5" width="3" height="3" style="stroke-width: 1px; stroke: rgb(0, 0, 0); stroke-opacity: 0; fill: rgb(0, 0, 0); fill-opacity: 0;"/><text class="annotation-text" text-anchor="middle" x="2" y="2" style="font-family: Georgia, serif; font-size: 12px; fill: rgb(45, 24, 16); fill-opacity: 1; white-space: pre;"></text></g></g><g class="annotation-arrow-g" style="opacity: 0.75;"><path d="M533.7,349.16009865557595L431.81,336.94" style="stroke-width: 2px; stroke: rgb(27, 58, 92); stroke-opacity: 1; stroke-dasharray: 0px, 8px, 83.2402px, 102.62px;"/><path d="M-3.7,-2.5V2.5L1.3,0Z" transform="translate(443.1090087890625,338.2951354980469)rotate(-173.16347741485643)scale(2.6)" style="fill: rgb(27, 58, 92); stroke-width: 0;"/></g></g><g class="annotation" data-index="2" style="opacity: 1;"><g class="annotation-text-g" transform="rotate(0,431.81,336.94)"><g class="cursor-pointer" transform="translate(430,335)"><rect class="bg" x="0.5" y="0.5" width="3" height="3" style="stroke-width: 1px; stroke: rgb(0, 0, 0); stroke-opacity: 0; fill: rgb(0, 0, 0); fill-opacity: 0;"/><text class="annotation-text" text-anchor="middle" x="2" y="2" style="font-family: Georgia, serif; font-size: 12px; fill: rgb(45, 24, 16); fill-opacity: 1; white-space: pre;"></text></g></g><g class="annotation-arrow-g" style="opacity: 0.75;"><path d="M430.31,336.30072880825776L367.87,309.69" style="stroke-width: 2px; stroke: rgb(27, 58, 92); stroke-opacity: 1; stroke-dasharray: 0px, 8px, 48.494px, 67.874px;"/><path d="M-3.7,-2.5V2.5L1.3,0Z" transform="translate(378.3388977050781,314.1516418457031)rotate(-156.9093283118462)scale(2.6)" style="fill: rgb(27, 58, 92); stroke-width: 0;"/></g></g><g class="annotation" data-index="3" style="opacity: 1;"><g class="annotation-text-g" transform="rotate(0,367.87,309.69)"><g class="cursor-pointer" transform="translate(366,308)"><rect class="bg" x="0.5" y="0.5" width="3" height="3" style="stroke-width: 1px; stroke: rgb(0, 0, 0); stroke-opacity: 0; fill: rgb(0, 0, 0); fill-opacity: 0;"/><text class="annotation-text" text-anchor="middle" x="2" y="2" style="font-family: Georgia, serif; font-size: 12px; fill: rgb(45, 24, 16); fill-opacity: 1; white-space: pre;"></text></g></g><g class="annotation-arrow-g" style="opacity: 0.75;"><path d="M366.53506487265736,308.19L330.83000000000004,268.07" style="stroke-width: 2px; stroke: rgb(27, 58, 92); stroke-opacity: 1; stroke-dasharray: 0px, 8px, 34.3272px, 53.7072px;"/><path d="M-3.7,-2.5V2.5L1.3,0Z" transform="translate(338.3955078125,276.5710144042969)rotate(-131.65967792030116)scale(2.6)" style="fill: rgb(27, 58, 92); stroke-width: 0;"/></g></g><g class="annotation" data-index="4" style="opacity: 1;"><g class="annotation-text-g" transform="rotate(0,330.83000000000004,268.07)"><g class="cursor-pointer" transform="translate(329,266)"><rect class="bg" x="0.5" y="0.5" width="3" height="3" style="stroke-width: 1px; stroke: rgb(0, 0, 0); stroke-opacity: 0; fill: rgb(0, 0, 0); fill-opacity: 0;"/><text class="annotation-text" text-anchor="middle" x="2" y="2" style="font-family: Georgia, serif; font-size: 12px; fill: rgb(45, 24, 16); fill-opacity: 1; white-space: pre;"></text></g></g><g class="annotation-arrow-g" style="opacity: 0.75;"><path d="M329.33000000000004,269.1011034698343L298.84000000000003,290.06" style="stroke-width: 2px; stroke: rgb(27, 58, 92); stroke-opacity: 1; stroke-dasharray: 0px, 8px, 17.6188px, 36.9988px;"/><path d="M-3.7,-2.5V2.5L1.3,0Z" transform="translate(308.218017578125,283.613525390625)rotate(145.49507961415742)scale(2.6)" style="fill: rgb(27, 58, 92); stroke-width: 0;"/></g></g><g class="annotation" data-index="5" style="opacity: 1;"><g class="annotation-text-g" transform="rotate(0,298.84000000000003,290.06)"><g class="cursor-pointer" transform="translate(297,288)"><rect class="bg" x="0.5" y="0.5" width="3" height="3" style="stroke-width: 1px; stroke: rgb(0, 0, 0); stroke-opacity: 0; fill: rgb(0, 0, 0); fill-opacity: 0;"/><text class="annotation-text" text-anchor="middle" x="2" y="2" style="font-family: Georgia, serif; font-size: 12px; fill: rgb(45, 24, 16); fill-opacity: 1; white-space: pre;"></text></g></g><g class="annotation-arrow-g" style="opacity: 0.75;"><path d="M297.93962973121234,288.56L255.07,217.14" style="stroke-width: 2px; stroke: rgb(27, 58, 92); stroke-opacity: 1; stroke-dasharray: 0px, 8px, 63.9184px, 83.2984px;"/><path d="M-3.7,-2.5V2.5L1.3,0Z" transform="translate(260.9267272949219,226.89720153808594)rotate(-120.97575125205594)scale(2.6)" style="fill: rgb(27, 58, 92); stroke-width: 0;"/></g></g><g class="annotation" data-index="6" style="opacity: 1;"><g class="annotation-text-g" transform="rotate(0,255.07,217.14)"><g class="cursor-pointer" transform="translate(253,215)"><rect class="bg" x="0.5" y="0.5" width="3" height="3" style="stroke-width: 1px; stroke: rgb(0, 0, 0); stroke-opacity: 0; fill: rgb(0, 0, 0); fill-opacity: 0;"/><text class="annotation-text" text-anchor="middle" x="2" y="2" style="font-family: Georgia, serif; font-size: 12px; fill: rgb(45, 24, 16); fill-opacity: 1; white-space: pre;"></text></g></g><g class="annotation-arrow-g" style="opacity: 0.75;"><path d="M255.28976744186045,218.64L255.7,221.44" style="stroke-width: 2px; stroke: rgb(27, 58, 92); stroke-opacity: 1; stroke-dasharray: 0px, 100px;"/></g></g><g class="annotation" data-index="7" style="opacity: 1;"><g class="annotation-text-g" transform="rotate(0,367.87,309.69)"><g class="cursor-pointer" transform="translate(366,308)"><rect class="bg" x="0.5" y="0.5" width="3" height="3" style="stroke-width: 1px; stroke: rgb(0, 0, 0); stroke-opacity: 0; fill: rgb(0, 0, 0); fill-opacity: 0;"/><text class="annotation-text" text-anchor="middle" x="2" y="2" style="font-family: Georgia, serif; font-size: 12px; fill: rgb(45, 24, 16); fill-opacity: 1; white-space: pre;"></text></g></g><g class="annotation-arrow-g" style="opacity: 0.5;"><path d="M366.37,309.540518161834L272.34000000000003,300.16999999999996" style="stroke-width: 1.8px; stroke: rgb(122, 26, 26); stroke-opacity: 1; stroke-dasharray: 0px, 8px, 75.4538px, 94.4958px;"/><path d="M-3.7,-2.5V2.5L1.3,0Z" transform="translate(283.32757568359375,301.2649841308594)rotate(-174.3085431476441)scale(2.3400000000000003)" style="fill: rgb(122, 26, 26); stroke-width: 0;"/></g></g><g class="annotation" data-index="8" style="opacity: 1;"><g class="annotation-text-g" transform="rotate(0,330.83000000000004,268.07)"><g class="cursor-pointer" transform="translate(329,266)"><rect class="bg" x="0.5" y="0.5" width="3" height="3" style="stroke-width: 1px; stroke: rgb(0, 0, 0); stroke-opacity: 0; fill: rgb(0, 0, 0); fill-opacity: 0;"/><text class="annotation-text" text-anchor="middle" x="2" y="2" style="font-family: Georgia, serif; font-size: 12px; fill: rgb(45, 24, 16); fill-opacity: 1; white-space: pre;"></text></g></g><g class="annotation-arrow-g" style="opacity: 0.5;"><path d="M329.8714386628197,266.57L266.6,167.56" style="stroke-width: 1.8px; stroke: rgb(122, 26, 26); stroke-opacity: 1; stroke-dasharray: 0px, 8px, 98.458px, 117.5px;"/><path d="M-3.7,-2.5V2.5L1.3,0Z" transform="translate(272.5458984375,176.86441040039062)rotate(-122.57446648370599)scale(2.3400000000000003)" style="fill: rgb(122, 26, 26); stroke-width: 0;"/></g></g><g class="annotation" data-index="9" style="opacity: 1;"><g class="annotation-text-g" transform="rotate(0,298.84000000000003,290.06)"><g class="cursor-pointer" transform="translate(297,288)"><rect class="bg" x="0.5" y="0.5" width="3" height="3" style="stroke-width: 1px; stroke: rgb(0, 0, 0); stroke-opacity: 0; fill: rgb(0, 0, 0); fill-opacity: 0;"/><text class="annotation-text" text-anchor="middle" x="2" y="2" style="font-family: Georgia, serif; font-size: 12px; fill: rgb(45, 24, 16); fill-opacity: 1; white-space: pre;"></text></g></g><g class="annotation-arrow-g" style="opacity: 0.5;"><path d="M300.25691176470593,291.56L318.11,310.46000000000004" style="stroke-width: 1.8px; stroke: rgb(122, 26, 26); stroke-opacity: 1; stroke-dasharray: 0px, 8px, 6.9569px, 25.9989px;"/><path d="M-3.7,-2.5V2.5L1.3,0Z" transform="translate(310.527587890625,302.4329833984375)rotate(46.632339501537686)scale(2.3400000000000003)" style="fill: rgb(122, 26, 26); stroke-width: 0;"/></g></g><g class="annotation" data-index="10" style="opacity: 1;"><g class="annotation-text-g" transform="rotate(0,730.86,385.12)"><g class="cursor-pointer" transform="translate(716,377)"><rect class="bg" x="0.5" y="0.5" width="29" height="16" style="stroke-width: 1px; stroke: rgb(0, 0, 0); stroke-opacity: 0; fill: rgb(253, 250, 244); fill-opacity: 0.72;"/><text class="annotation-text" text-anchor="middle" x="14.8828125" y="12" style="font-family: Georgia, serif; font-size: 11px; fill: rgb(45, 24, 16); fill-opacity: 1; white-space: pre;">base</text></g></g><g class="annotation-arrow-g" style="opacity: 0.35;"><path d="M730.86,393.12L730.86,425.12" style="stroke-width: 1px; stroke: rgb(45, 24, 16); stroke-opacity: 1; stroke-dasharray: 0px, 0px, 32px, 32px;"/></g></g><g class="annotation" data-index="11" style="opacity: 1;"><g class="annotation-text-g" transform="rotate(0,633.03,347.23)"><g class="cursor-pointer" transform="translate(547,324)"><rect class="bg" x="0.5" y="0.5" width="171" height="45" style="stroke-width: 1px; stroke: rgb(0, 0, 0); stroke-opacity: 0; fill: rgb(253, 250, 244); fill-opacity: 0.72;"/><text class="annotation-text" text-anchor="middle" x="86.1328125" y="12" style="font-family: Georgia, serif; font-size: 11px; fill: rgb(27, 58, 92); fill-opacity: 1; white-space: pre;"><tspan class="line" dy="0em" x="86.1328125" y="12">round00</tspan><tspan class="line" dy="1.3em" x="86.1328125" y="12">Steer: wellbeing-focused even</tspan><tspan class="line" dy="2.6em" x="86.1328125" y="12">when authority-defying</tspan></text></g></g><g class="annotation-arrow-g" style="opacity: 0.35;"><path d="M633.03,369.73L633.03,387.23" style="stroke-width: 1px; stroke: rgb(45, 24, 16); stroke-opacity: 1; stroke-dasharray: 0px, 0px, 17.5px, 17.5px;"/></g></g><g class="annotation" data-index="12" style="opacity: 1;"><g class="annotation-text-g" transform="rotate(0,483.5,303.14)"><g class="cursor-pointer" transform="translate(403,288)"><rect class="bg" x="0.5" y="0.5" width="160" height="30" style="stroke-width: 1px; stroke: rgb(0, 0, 0); stroke-opacity: 0; fill: rgb(253, 250, 244); fill-opacity: 0.72;"/><text class="annotation-text" text-anchor="middle" x="80.6640625" y="12" style="font-family: Georgia, serif; font-size: 11px; fill: rgb(27, 58, 92); fill-opacity: 1; white-space: pre;"><tspan class="line" dy="0em" x="80.6640625" y="12">round01</tspan><tspan class="line" dy="1.3em" x="80.6640625" y="12">Steer: takes concrete action</tspan></text></g></g><g class="annotation-arrow-g" style="opacity: 0.35;"><path d="M483.5,318.14L483.5,343.14" style="stroke-width: 1px; stroke: rgb(45, 24, 16); stroke-opacity: 1; stroke-dasharray: 0px, 0px, 25px, 25px;"/></g></g><g class="annotation" data-index="13" style="opacity: 1;"><g class="annotation-text-g" transform="rotate(0,399.84,385.32)"><g class="cursor-pointer" transform="translate(321,355)"><rect class="bg" x="0.5" y="0.5" width="157" height="59" style="stroke-width: 1px; stroke: rgb(0, 0, 0); stroke-opacity: 0; fill: rgb(253, 250, 244); fill-opacity: 0.72;"/><text class="annotation-text" text-anchor="middle" x="78.7578125" y="12" style="font-family: Georgia, serif; font-size: 11px; fill: rgb(27, 58, 92); fill-opacity: 1; white-space: pre;"><tspan class="line" dy="0em" x="78.7578125" y="12">round02</tspan><tspan class="line" dy="1.3em" x="78.7578125" y="12">Steer: applies the same</tspan><tspan class="line" dy="2.6em" x="78.7578125" y="12">standard openly even when</tspan><tspan class="line" dy="3.9000000000000004em" x="78.7578125" y="12">favoritism would help</tspan></text></g></g><g class="annotation-arrow-g" style="opacity: 0.35;"><path d="M399.84,355.82L399.84,323.32" style="stroke-width: 1px; stroke: rgb(45, 24, 16); stroke-opacity: 1; stroke-dasharray: 0px, 0px, 32.5px, 32.5px;"/></g></g><g class="annotation" data-index="14" style="opacity: 1;"><g class="annotation-text-g" transform="rotate(0,349.35,226.88)"><g class="cursor-pointer" transform="translate(293,204)"><rect class="bg" x="0.5" y="0.5" width="111" height="45" style="stroke-width: 1px; stroke: rgb(0, 0, 0); stroke-opacity: 0; fill: rgb(253, 250, 244); fill-opacity: 0.72;"/><text class="annotation-text" text-anchor="middle" x="56.203125" y="12" style="font-family: Georgia, serif; font-size: 11px; fill: rgb(27, 58, 92); fill-opacity: 1; white-space: pre;"><tspan class="line" dy="0em" x="56.203125" y="12">round04</tspan><tspan class="line" dy="1.3em" x="56.203125" y="12">Steer: honest when</tspan><tspan class="line" dy="2.6em" x="56.203125" y="12">uncomfortable</tspan></text></g></g><g class="annotation-arrow-g" style="opacity: 0.35;"><path d="M349.35,249.38L349.35,288.88" style="stroke-width: 1px; stroke: rgb(45, 24, 16); stroke-opacity: 1; stroke-dasharray: 0px, 0px, 39.5px, 39.5px;"/></g></g><g class="annotation" data-index="15" style="opacity: 1;"><g class="annotation-text-g" transform="rotate(0,231.40139981998743,362.4986001800126)"><g class="cursor-pointer" transform="translate(150,339)"><rect class="bg" x="0.5" y="0.5" width="162" height="45" style="stroke-width: 1px; stroke: rgb(0, 0, 0); stroke-opacity: 0; fill: rgb(253, 250, 244); fill-opacity: 0.72;"/><text class="annotation-text" text-anchor="middle" x="81.3125" y="12" style="font-family: Georgia, serif; font-size: 11px; fill: rgb(27, 58, 92); fill-opacity: 1; white-space: pre;"><tspan class="line" dy="0em" x="81.3125" y="12">round08</tspan><tspan class="line" dy="1.3em" x="81.3125" y="12">Steer: defaults to dispersing</tspan><tspan class="line" dy="2.6em" x="81.3125" y="12">power</tspan></text></g></g><g class="annotation-arrow-g" style="opacity: 0.35;"><path d="M253.90139981998743,339.9986001800126L314.84000000000003,279.06" style="stroke-width: 1px; stroke: rgb(45, 24, 16); stroke-opacity: 1; stroke-dasharray: 0px, 0px, 86.1802px, 86.1802px;"/></g></g><g class="annotation" data-index="16" style="opacity: 1;"><g class="annotation-text-g" transform="rotate(0,214.96000000000004,253.6)"><g class="cursor-pointer" transform="translate(135,238)"><rect class="bg" x="0.5" y="0.5" width="159" height="30" style="stroke-width: 1px; stroke: rgb(0, 0, 0); stroke-opacity: 0; fill: rgb(253, 250, 244); fill-opacity: 0.72;"/><text class="annotation-text" text-anchor="middle" x="79.8671875" y="12" style="font-family: Georgia, serif; font-size: 11px; fill: rgb(27, 58, 92); fill-opacity: 1; white-space: pre;"><tspan class="line" dy="0em" x="79.8671875" y="12">round10</tspan><tspan class="line" dy="1.3em" x="79.8671875" y="12">Steer: long-term flourishing</tspan></text></g></g></g><g class="annotation" data-index="17" style="opacity: 1;"><g class="annotation-text-g" transform="rotate(0,255.38,131.29)"><g class="cursor-pointer" transform="translate(199,116)"><rect class="bg" x="0.5" y="0.5" width="112" height="30" style="stroke-width: 1px; stroke: rgb(0, 0, 0); stroke-opacity: 0; fill: rgb(253, 250, 244); fill-opacity: 0.72;"/><text class="annotation-text" text-anchor="middle" x="56.25" y="12" style="font-family: Georgia, serif; font-size: 11px; fill: rgb(27, 58, 92); fill-opacity: 1; white-space: pre;"><tspan class="line" dy="0em" x="56.25" y="12">round11</tspan><tspan class="line" dy="1.3em" x="56.25" y="12">Steer: self-integrity</tspan></text></g></g><g class="annotation-arrow-g" style="opacity: 0.35;"><path d="M255.38,146.29L255.38,219.29" style="stroke-width: 1px; stroke: rgb(45, 24, 16); stroke-opacity: 1; stroke-dasharray: 0px, 0px, 73px, 73px;"/></g></g><g class="annotation" data-index="18" style="opacity: 1;"><g class="annotation-text-g" transform="rotate(0,770.93,432.44)"><g class="cursor-pointer" transform="translate(750,424)"><rect class="bg" x="0.5" y="0.5" width="41" height="16" style="stroke-width: 1px; stroke: rgb(0, 0, 0); stroke-opacity: 0; fill: rgb(253, 250, 244); fill-opacity: 0.72;"/><text class="annotation-text" text-anchor="middle" x="21.125" y="12" style="font-family: Georgia, serif; font-size: 11px; fill: rgb(139, 105, 20); fill-opacity: 1; white-space: pre;">human</text></g></g><g class="annotation-arrow-g" style="opacity: 0.35;"><path d="M770.93,440.44L770.93,472.44" style="stroke-width: 1px; stroke: rgb(45, 24, 16); stroke-opacity: 1; stroke-dasharray: 0px, 0px, 32px, 32px;"/></g></g></g></svg>